<svg width="258" height="257" viewBox="0 0 258 257" fill="none" xmlns="http://www.w3.org/2000/svg">
<path d="M91.2803 44.648C91.2803 47.848 90.2883 50.632 88.3043 53C86.3203 55.336 83.4883 57.512 79.8083 59.528C84.1283 61.32 87.5683 63.704 90.1283 66.68C92.6883 69.656 93.9683 73.192 93.9683 77.288C93.9683 80.872 93.0403 84.088 91.1843 86.936C89.3283 89.784 86.7043 92.024 83.3123 93.656C79.9523 95.288 75.9363 96.104 71.2643 96.104C66.5603 96.104 62.5283 95.288 59.1683 93.656C55.8403 91.992 53.2963 89.752 51.5363 86.936C49.8083 84.12 48.9443 80.952 48.9443 77.432C48.9443 73.368 50.1443 69.944 52.5443 67.16C54.9763 64.344 58.1923 62.024 62.1923 60.2C58.7043 58.536 56.0643 56.52 54.2723 54.152C52.5123 51.784 51.6323 48.76 51.6323 45.08C51.6323 42.04 52.2403 39.448 53.4563 37.304C54.7043 35.128 56.3043 33.336 58.2563 31.928C60.2403 30.52 62.3843 29.496 64.6883 28.856C67.0243 28.184 69.2803 27.848 71.4563 27.848C73.8563 27.848 76.2243 28.184 78.5603 28.856C80.9283 29.496 83.0723 30.504 84.9923 31.88C86.9123 33.224 88.4323 34.952 89.5523 37.064C90.7043 39.176 91.2803 41.704 91.2803 44.648ZM85.4723 77.384C85.4723 74.408 84.7203 72.056 83.2163 70.328C81.7123 68.6 79.6323 67.16 76.9763 66.008C74.3203 64.856 71.2483 63.688 67.7603 62.504C65.9363 63.336 64.2403 64.392 62.6723 65.672C61.1043 66.952 59.8403 68.552 58.8803 70.472C57.9203 72.36 57.4403 74.696 57.4403 77.48C57.4403 81.224 58.5923 84.184 60.8963 86.36C63.2323 88.504 66.6723 89.576 71.2163 89.576C75.8243 89.576 79.3443 88.424 81.7763 86.12C84.2403 83.784 85.4723 80.872 85.4723 77.384ZM59.6003 45.176C59.6003 47.704 60.1763 49.688 61.3283 51.128C62.5123 52.568 64.1923 53.752 66.3683 54.68C68.5443 55.576 71.1203 56.52 74.0963 57.512C77.1683 55.752 79.4723 53.976 81.0083 52.184C82.5443 50.36 83.3123 47.944 83.3123 44.936C83.3123 41.608 82.2723 38.968 80.1923 37.016C78.1443 35.064 75.2323 34.088 71.4563 34.088C67.7123 34.088 64.8003 35.064 62.7203 37.016C60.6403 38.968 59.6003 41.688 59.6003 45.176ZM129.019 27.848C136.155 27.848 141.547 30.792 145.195 36.68C148.843 42.568 150.667 50.984 150.667 61.928C150.667 72.904 148.843 81.352 145.195 87.272C141.547 93.16 136.155 96.104 129.019 96.104C121.915 96.104 116.523 93.16 112.843 87.272C109.195 81.352 107.371 72.904 107.371 61.928C107.371 50.984 109.195 42.568 112.843 36.68C116.523 30.792 121.915 27.848 129.019 27.848ZM129.019 34.328C124.955 34.328 121.755 36.488 119.419 40.808C117.083 45.096 115.915 52.136 115.915 61.928C115.915 66.888 116.171 71.128 116.683 74.648C117.195 78.168 117.979 81.032 119.035 83.24C120.123 85.416 121.483 87.016 123.115 88.04C124.779 89.064 126.747 89.576 129.019 89.576C131.771 89.576 134.123 88.632 136.075 86.744C138.059 84.856 139.563 81.88 140.587 77.816C141.643 73.72 142.171 68.424 142.171 61.928C142.171 55.336 141.707 50.008 140.779 45.944C139.883 41.88 138.459 38.936 136.507 37.112C134.587 35.256 132.091 34.328 129.019 34.328ZM138.763 36.68L140.875 43.736L119.851 86.312L116.875 80.696L138.763 36.68ZM206.405 44.648C206.405 47.848 205.413 50.632 203.429 53C201.445 55.336 198.613 57.512 194.933 59.528C199.253 61.32 202.693 63.704 205.253 66.68C207.813 69.656 209.093 73.192 209.093 77.288C209.093 80.872 208.165 84.088 206.309 86.936C204.453 89.784 201.829 92.024 198.437 93.656C195.077 95.288 191.061 96.104 186.389 96.104C181.685 96.104 177.653 95.288 174.293 93.656C170.965 91.992 168.421 89.752 166.661 86.936C164.933 84.12 164.069 80.952 164.069 77.432C164.069 73.368 165.269 69.944 167.669 67.16C170.101 64.344 173.317 62.024 177.317 60.2C173.829 58.536 171.189 56.52 169.397 54.152C167.637 51.784 166.757 48.76 166.757 45.08C166.757 42.04 167.365 39.448 168.581 37.304C169.829 35.128 171.429 33.336 173.381 31.928C175.365 30.52 177.509 29.496 179.813 28.856C182.149 28.184 184.405 27.848 186.581 27.848C188.981 27.848 191.349 28.184 193.685 28.856C196.053 29.496 198.197 30.504 200.117 31.88C202.037 33.224 203.557 34.952 204.677 37.064C205.829 39.176 206.405 41.704 206.405 44.648ZM200.597 77.384C200.597 74.408 199.845 72.056 198.341 70.328C196.837 68.6 194.757 67.16 192.101 66.008C189.445 64.856 186.373 63.688 182.885 62.504C181.061 63.336 179.365 64.392 177.797 65.672C176.229 66.952 174.965 68.552 174.005 70.472C173.045 72.36 172.565 74.696 172.565 77.48C172.565 81.224 173.717 84.184 176.021 86.36C178.357 88.504 181.797 89.576 186.341 89.576C190.949 89.576 194.469 88.424 196.901 86.12C199.365 83.784 200.597 80.872 200.597 77.384ZM174.725 45.176C174.725 47.704 175.301 49.688 176.453 51.128C177.637 52.568 179.317 53.752 181.493 54.68C183.669 55.576 186.245 56.52 189.221 57.512C192.293 55.752 194.597 53.976 196.133 52.184C197.669 50.36 198.437 47.944 198.437 44.936C198.437 41.608 197.397 38.968 195.317 37.016C193.269 35.064 190.357 34.088 186.581 34.088C182.837 34.088 179.925 35.064 177.845 37.016C175.765 38.968 174.725 41.688 174.725 45.176Z" fill="#FF6B35"/>
<path d="M35.0243 153.848C39.3443 153.848 42.9603 154.392 45.8723 155.48C48.7843 156.568 51.5522 158.168 54.1763 160.28L49.5203 165.704C47.4403 163.944 45.2323 162.696 42.8963 161.96C40.5923 161.192 38.1763 160.808 35.6483 160.808C32.0323 160.808 28.6883 161.672 25.6163 163.4C22.5443 165.096 20.0643 167.928 18.1763 171.896C16.3203 175.832 15.3923 181.176 15.3923 187.928C15.3923 194.488 16.2723 199.752 18.0323 203.72C19.8243 207.688 22.2403 210.552 25.2803 212.312C28.3203 214.072 31.7123 214.952 35.4563 214.952C39.1683 214.952 42.2083 214.392 44.5763 213.272C46.9763 212.152 49.0563 210.872 50.8163 209.432L55.1363 214.904C53.1203 216.856 50.4963 218.552 47.2643 219.992C44.0323 221.4 40.0643 222.104 35.3603 222.104C30.0163 222.104 25.1683 220.792 20.8163 218.168C16.4963 215.544 13.0723 211.704 10.5443 206.648C8.01625 201.56 6.75225 195.32 6.75225 187.928C6.75225 180.504 8.03225 174.264 10.5923 169.208C13.1843 164.152 16.6243 160.328 20.9123 157.736C25.2323 155.144 29.9363 153.848 35.0243 153.848ZM87.1148 169.4C91.8828 169.4 95.8668 170.488 99.0668 172.664C102.299 174.808 104.715 177.848 106.315 181.784C107.947 185.72 108.763 190.36 108.763 195.704C108.763 200.856 107.931 205.416 106.267 209.384C104.603 213.352 102.155 216.472 98.9228 218.744C95.7228 220.984 91.7548 222.104 87.0188 222.104C82.2828 222.104 78.2988 221.016 75.0668 218.84C71.8348 216.664 69.3868 213.608 67.7228 209.672C66.0908 205.704 65.2747 201.08 65.2747 195.8C65.2747 190.584 66.1068 185.992 67.7708 182.024C69.4348 178.056 71.8828 174.968 75.1148 172.76C78.3788 170.52 82.3788 169.4 87.1148 169.4ZM87.1148 175.976C82.7628 175.976 79.4668 177.592 77.2268 180.824C75.0188 184.024 73.9148 189.016 73.9148 195.8C73.9148 202.456 75.0028 207.4 77.1788 210.632C79.3868 213.864 82.6668 215.48 87.0188 215.48C91.3708 215.48 94.6348 213.864 96.8108 210.632C99.0188 207.4 100.123 202.424 100.123 195.704C100.123 188.984 99.0348 184.024 96.8588 180.824C94.6828 177.592 91.4348 175.976 87.1148 175.976ZM155.669 149.096L163.733 150.104V221H156.677L155.909 214.328C154.021 217.016 151.845 218.984 149.381 220.232C146.949 221.48 144.341 222.104 141.557 222.104C137.173 222.104 133.557 221 130.709 218.792C127.861 216.584 125.749 213.512 124.373 209.576C122.997 205.608 122.309 201.016 122.309 195.8C122.309 190.744 123.093 186.232 124.661 182.264C126.229 178.264 128.485 175.128 131.429 172.856C134.405 170.552 137.973 169.4 142.133 169.4C145.045 169.4 147.605 169.912 149.813 170.936C152.021 171.928 153.973 173.4 155.669 175.352V149.096ZM144.245 175.88C140.021 175.88 136.773 177.528 134.501 180.824C132.229 184.12 131.093 189.112 131.093 195.8C131.093 200.152 131.557 203.8 132.485 206.744C133.413 209.688 134.773 211.896 136.565 213.368C138.389 214.84 140.613 215.576 143.237 215.576C146.117 215.576 148.565 214.76 150.581 213.128C152.629 211.496 154.325 209.656 155.669 207.608V182.36C154.293 180.312 152.629 178.728 150.677 177.608C148.725 176.456 146.581 175.88 144.245 175.88ZM189.328 198.584C189.488 202.488 190.24 205.688 191.584 208.184C192.928 210.648 194.704 212.472 196.912 213.656C199.12 214.808 201.52 215.384 204.112 215.384C206.704 215.384 209.04 215 211.12 214.232C213.232 213.464 215.392 212.328 217.6 210.824L221.392 216.152C219.024 218.008 216.32 219.464 213.28 220.52C210.272 221.576 207.184 222.104 204.016 222.104C199.12 222.104 194.944 221 191.488 218.792C188.032 216.584 185.392 213.512 183.568 209.576C181.776 205.608 180.88 201.016 180.88 195.8C180.88 190.68 181.792 186.136 183.616 182.168C185.44 178.2 188 175.08 191.296 172.808C194.592 170.536 198.48 169.4 202.96 169.4C207.216 169.4 210.88 170.408 213.952 172.424C217.024 174.408 219.376 177.256 221.008 180.968C222.672 184.648 223.504 189.048 223.504 194.168C223.504 195.032 223.488 195.848 223.456 196.616C223.424 197.352 223.376 198.008 223.312 198.584H189.328ZM203.056 176.024C199.312 176.024 196.176 177.352 193.648 180.008C191.152 182.664 189.728 186.776 189.376 192.344H215.728C215.632 186.936 214.448 182.872 212.176 180.152C209.904 177.4 206.864 176.024 203.056 176.024Z" fill="#6C63FF"/>
<path d="M244.134 221.545C242.452 221.545 241.009 220.943 239.804 219.739C238.599 218.534 237.997 217.091 237.997 215.409C237.997 213.727 238.599 212.284 239.804 211.08C241.009 209.875 242.452 209.273 244.134 209.273C245.815 209.273 247.259 209.875 248.463 211.08C249.668 212.284 250.27 213.727 250.27 215.409C250.27 216.523 249.986 217.545 249.418 218.477C248.872 219.409 248.134 220.159 247.202 220.727C246.293 221.273 245.27 221.545 244.134 221.545Z" fill="black"/>
</svg>
