<svg width="436" height="312" viewBox="0 0 436 312" fill="none" xmlns="http://www.w3.org/2000/svg">
<g clip-path="url(#clip0_27_359)">
<g clip-path="url(#clip1_27_359)">
<path d="M71.2961 311.351C71.2961 311.711 71.557 312 71.8816 312H363.865C364.192 312 364.45 311.711 364.45 311.351C364.45 310.991 364.189 310.702 363.865 310.702H71.8816C71.557 310.703 71.2961 310.992 71.2961 311.351Z" fill="#CCCCCC"/>
<path d="M176.94 309.213H166.515V310.603H176.94V309.213Z" fill="#B6B3C5"/>
<path d="M269.229 309.445H258.804V310.835H269.229V309.445Z" fill="#B6B3C5"/>
<path d="M232.82 247.336C232.24 249.99 230.431 252.402 227.717 254.143C225.003 255.883 221.559 256.838 218 256.838C214.441 256.838 210.997 255.883 208.283 254.143C205.569 252.402 203.76 249.99 203.18 247.336H165.263V309.444H270.739V247.336H232.82Z" fill="#D6D6E3"/>
<path d="M271.044 304.523H165.57V306.685H271.044V304.523Z" fill="#090814"/>
<path d="M430.12 248.959H5.88004C4.32109 248.958 2.82648 248.489 1.72414 247.656C0.621792 246.823 0.00173313 245.693 0 244.515L0 61.5181C0.00158872 60.3398 0.621584 59.21 1.72395 58.3767C2.82631 57.5434 4.321 57.0747 5.88004 57.0734H430.12C431.679 57.0748 433.173 57.5435 434.276 58.3767C435.378 59.2099 435.998 60.3395 436 61.5177V244.515C435.998 245.693 435.378 246.823 434.276 247.656C433.173 248.489 431.679 248.958 430.12 248.959Z" fill="#090814"/>
<path d="M425.575 64.4885H10.4243V241.543H425.575V64.4885Z" fill="white"/>
<path d="M275.839 102.315H63.5308C61.1199 102.315 59.1655 103.792 59.1655 105.615V200.418C59.1655 202.24 61.1199 203.717 63.5308 203.717H275.839C278.25 203.717 280.205 202.24 280.205 200.418V105.615C280.205 103.792 278.25 102.315 275.839 102.315Z" fill="#F2F2F2"/>
<path d="M275.542 105.342H63.2908V200.459H275.542V105.342Z" fill="white"/>
<path d="M372.47 102.315H299.802C297.391 102.315 295.437 103.792 295.437 105.615V146.018C295.437 147.84 297.391 149.317 299.802 149.317H372.47C374.881 149.317 376.835 147.84 376.835 146.018V105.615C376.835 103.792 374.881 102.315 372.47 102.315Z" fill="#F2F2F2"/>
<path d="M372.79 104.651H299.481V146.982H372.79V104.651Z" fill="white"/>
<path d="M372.47 156.714H299.802C297.391 156.714 295.437 158.191 295.437 160.013V200.417C295.437 202.239 297.391 203.716 299.802 203.716H372.47C374.881 203.716 376.835 202.239 376.835 200.417V160.013C376.835 158.191 374.881 156.714 372.47 156.714Z" fill="#F2F2F2"/>
<path d="M372.79 159.05H299.481V201.381H372.79V159.05Z" fill="white"/>
<path d="M351.67 122.05C350.443 119.668 348.208 117.66 345.313 116.339C342.149 114.875 338.653 113.87 335.002 113.374C331.397 112.972 327.721 113.127 324.198 113.831C322.5 114.163 320.627 114.55 319.194 115.346C317.824 116.107 316.886 117.359 316.122 118.484C315.391 119.562 314.935 120.748 315.331 121.955C315.761 123.054 316.658 124.016 317.883 124.691C318.926 125.314 320.385 126.138 321.779 125.752C321.859 125.73 321.934 125.702 322.005 125.666C324.413 126.22 326.806 125.415 329.281 124.784C330.784 124.4 332.295 124.206 333.804 124.685C335.279 125.207 336.523 126.039 337.388 127.081C338.233 128.03 338.788 129.109 339.714 130.019C340.174 130.488 340.759 130.878 341.432 131.165C342.104 131.452 342.849 131.629 343.618 131.685C346.605 131.938 350.571 131.705 352.294 129.567C354.123 127.289 352.923 124.318 351.67 122.05ZM321.173 118.551L322.502 118.665C321.658 118.78 320.868 119.06 320.211 119.477C319.961 119.637 319.729 119.811 319.518 120C319.524 119.985 319.528 119.97 319.534 119.955C319.665 119.648 319.877 119.365 320.159 119.123C320.441 118.882 320.786 118.687 321.173 118.551V118.551ZM336.049 120.69C336.148 120.746 336.262 120.783 336.383 120.798L336.426 120.803C336.508 120.839 336.591 120.874 336.674 120.91C336.664 120.919 336.657 120.93 336.649 120.94L336.041 120.894C336.055 120.827 336.058 120.758 336.049 120.69ZM341.412 125.483C341.367 125.519 341.328 125.558 341.294 125.6L341.235 125.535C341.29 125.51 341.35 125.493 341.412 125.483ZM344.875 128.316L345.476 128.376C345.438 128.425 345.411 128.479 345.394 128.534C345.251 128.538 345.108 128.539 344.964 128.54L344.875 128.316ZM347.784 127.024L348.027 126.993C348.154 126.977 348.274 126.941 348.381 126.886C348.381 126.897 348.381 126.908 348.381 126.919C348.381 126.955 348.387 127.001 348.393 127.053C348.374 127.079 348.354 127.105 348.332 127.131L347.782 127.024H347.784ZM337.455 118.95C337.359 118.889 337.25 118.841 337.133 118.807C336.563 118.64 335.98 118.503 335.386 118.394C335.298 118.331 335.211 118.266 335.127 118.2C335.627 118.274 336.122 118.37 336.608 118.485C337.232 118.636 337.844 118.814 338.442 119.018C338.112 118.99 337.782 118.968 337.453 118.95L337.455 118.95ZM343.021 119.232C342.73 119.094 342.438 118.96 342.144 118.828C342.446 118.956 342.743 119.091 343.036 119.232H343.021ZM349.02 121.301C348.242 120.581 347.381 119.915 346.447 119.309C346.52 119.184 346.557 119.049 346.556 118.912C347.533 119.61 348.363 120.415 349.019 121.302L349.02 121.301ZM337.832 115.41L337.462 115.346C336.292 115.146 335.101 114.931 333.898 114.749C333.963 114.755 334.027 114.759 334.092 114.766C335.362 114.893 336.614 115.109 337.831 115.41H337.832Z" fill="#6C63FF"/>
<path d="M338.847 140.674C337.734 140.65 336.348 140.621 335.281 140.032C334.963 139.849 334.702 139.616 334.516 139.349C334.33 139.082 334.223 138.788 334.203 138.486C334.184 138.272 334.231 138.058 334.339 137.859C334.448 137.661 334.616 137.484 334.83 137.343C335.148 137.164 335.52 137.047 335.913 137.005C336.306 136.962 336.706 136.994 337.079 137.099L336.17 132.077L336.837 132.008L337.906 137.909L337.349 137.716C336.703 137.492 335.816 137.378 335.265 137.73C335.13 137.822 335.024 137.936 334.957 138.064C334.89 138.192 334.862 138.329 334.877 138.467C334.893 138.691 334.973 138.91 335.111 139.109C335.25 139.308 335.443 139.482 335.678 139.619C336.508 140.077 337.613 140.136 338.866 140.163L338.847 140.674Z" fill="#3F3D56"/>
<path d="M332.871 132.509H329.244V133.018H332.871V132.509Z" fill="#3F3D56"/>
<path d="M344.319 132.509H340.692V133.018H344.319V132.509Z" fill="#3F3D56"/>
<path d="M322.942 125.481C320.021 125.229 317.758 123.114 317.511 120.968C317.215 118.415 319.183 115.99 321.882 114.557C324.704 113.059 328.221 112.433 331.623 112.296C338.26 112.046 344.783 113.671 349.923 116.855C352.472 118.455 354.853 120.493 355.755 122.956C356.539 125.094 355.901 127.517 353.627 129.015C353.064 129.382 352.407 129.657 351.697 129.822C350.986 129.987 350.238 130.04 349.499 129.975C347.734 129.837 346.105 129.135 344.694 128.36C341.951 126.853 339.699 124.753 336.357 123.965C333.907 123.387 330.727 123.895 329.229 125.57C328.889 125.954 328.669 126.391 328.585 126.849C328.554 126.946 328.574 127.049 328.639 127.136C328.704 127.224 328.811 127.289 328.938 127.319C329.067 127.345 329.205 127.332 329.321 127.282C329.437 127.232 329.523 127.15 329.559 127.052C329.952 124.943 333.384 124.155 335.793 124.637C339.304 125.338 341.662 127.708 344.543 129.213C346.034 130.053 347.791 130.583 349.638 130.75C351.239 130.845 352.828 130.476 354.084 129.719C356.545 128.249 357.486 125.723 356.942 123.45C356.311 120.815 353.966 118.558 351.392 116.81C346.174 113.304 339.4 111.412 332.42 111.512C328.86 111.574 325.146 112.131 322.078 113.552C319.103 114.931 316.804 117.239 316.503 119.922C316.368 121.111 316.703 122.304 317.467 123.349C318.231 124.393 319.388 125.242 320.793 125.788C321.471 126.031 322.199 126.186 322.945 126.247C323.59 126.303 323.584 125.539 322.945 125.484L322.942 125.481Z" fill="#3F3D56"/>
<path d="M96.7017 120.559L91.0599 120.553C90.1954 120.552 89.4867 121.085 89.4769 121.744L89.4604 122.857C89.4506 123.515 90.1435 124.05 91.0079 124.051L96.6498 124.057C97.5143 124.058 98.223 123.524 98.2328 122.866L98.2493 121.753C98.259 121.094 97.5662 120.559 96.7017 120.559Z" fill="#E6E6E6"/>
<path d="M144.722 120.436L139.08 120.43C138.216 120.429 137.507 120.963 137.497 121.621L137.481 122.734C137.471 123.393 138.164 123.927 139.028 123.928L144.67 123.934C145.535 123.935 146.243 123.402 146.253 122.743L146.27 121.63C146.279 120.971 145.586 120.437 144.722 120.436Z" fill="#6C63FF"/>
<path d="M158.326 120.399L152.684 120.393C151.819 120.392 151.111 120.925 151.101 121.584L151.084 122.697C151.075 123.355 151.768 123.89 152.632 123.891L158.274 123.897C159.138 123.898 159.847 123.364 159.857 122.706L159.873 121.593C159.883 120.934 159.19 120.399 158.326 120.399Z" fill="#E6E6E6"/>
<path d="M131.653 120.193L104.121 120.171C103.254 120.17 102.544 120.71 102.534 121.377L102.519 122.503C102.51 123.169 103.205 123.71 104.072 123.711L131.604 123.733C132.471 123.734 133.182 123.194 133.191 122.527L133.206 121.401C133.216 120.735 132.52 120.194 131.653 120.193Z" fill="#E6E6E6"/>
<path d="M195.679 120.025L168.147 120.003C167.28 120.002 166.569 120.542 166.56 121.208L166.545 122.334C166.536 123.001 167.231 123.542 168.098 123.542L195.63 123.564C196.497 123.565 197.208 123.025 197.217 122.359L197.232 121.233C197.242 120.566 196.546 120.025 195.679 120.025Z" fill="#F2F2F2"/>
<path d="M96.9105 128.422L91.2686 128.416C90.4041 128.415 89.6954 128.949 89.6857 129.607L89.6692 130.72C89.6594 131.379 90.3522 131.913 91.2167 131.914L96.8586 131.92C97.723 131.921 98.4317 131.388 98.4415 130.729L98.458 129.616C98.4678 128.957 97.7749 128.423 96.9105 128.422Z" fill="#E6E6E6"/>
<path d="M144.93 128.299L139.288 128.293C138.423 128.292 137.714 128.826 137.705 129.484L137.688 130.597C137.678 131.256 138.371 131.791 139.236 131.792L144.878 131.797C145.742 131.798 146.451 131.265 146.461 130.606L146.477 129.493C146.487 128.835 145.794 128.3 144.93 128.299Z" fill="#6C63FF"/>
<path d="M158.535 128.262L152.893 128.256C152.029 128.255 151.32 128.788 151.31 129.447L151.294 130.56C151.284 131.219 151.977 131.753 152.841 131.754L158.483 131.76C159.348 131.761 160.056 131.228 160.066 130.569L160.083 129.456C160.092 128.797 159.399 128.263 158.535 128.262Z" fill="#E6E6E6"/>
<path d="M131.862 128.056L104.33 128.034C103.463 128.034 102.753 128.573 102.743 129.24L102.728 130.366C102.719 131.032 103.414 131.573 104.281 131.574L131.813 131.596C132.68 131.597 133.391 131.057 133.4 130.39L133.415 129.264C133.425 128.598 132.729 128.057 131.862 128.056Z" fill="#E6E6E6"/>
<path d="M195.888 127.889L168.356 127.867C167.489 127.867 166.778 128.407 166.769 129.073L166.753 130.199C166.744 130.866 167.44 131.407 168.307 131.407L195.839 131.429C196.706 131.43 197.416 130.89 197.426 130.224L197.441 129.098C197.45 128.431 196.755 127.89 195.888 127.889Z" fill="#F2F2F2"/>
<path d="M122.384 136.221L116.742 136.216C115.878 136.215 115.169 136.748 115.159 137.407L115.143 138.519C115.133 139.178 115.826 139.713 116.69 139.714L122.332 139.719C123.197 139.72 123.905 139.187 123.915 138.528L123.932 137.416C123.941 136.757 123.249 136.222 122.384 136.221Z" fill="#E6E6E6"/>
<path d="M170.404 136.096L164.762 136.09C163.898 136.09 163.189 136.623 163.18 137.282L163.163 138.394C163.153 139.053 163.846 139.588 164.711 139.589L170.352 139.594C171.217 139.595 171.926 139.062 171.935 138.403L171.952 137.29C171.962 136.632 171.269 136.097 170.404 136.096Z" fill="#6C63FF"/>
<path d="M184.01 136.059L178.368 136.053C177.504 136.052 176.795 136.586 176.785 137.244L176.769 138.357C176.759 139.016 177.452 139.55 178.316 139.551L183.958 139.557C184.822 139.558 185.531 139.025 185.541 138.366L185.557 137.253C185.567 136.594 184.874 136.06 184.01 136.059Z" fill="#E6E6E6"/>
<path d="M157.337 135.853L129.805 135.831C128.938 135.831 128.227 136.37 128.218 137.037L128.202 138.163C128.193 138.83 128.889 139.37 129.756 139.371L157.288 139.393C158.155 139.394 158.865 138.854 158.875 138.188L158.89 137.062C158.899 136.395 158.204 135.854 157.337 135.853Z" fill="#E6E6E6"/>
<path d="M96.8944 159.336L91.2525 159.33C90.388 159.329 89.6793 159.862 89.6696 160.521L89.653 161.634C89.6433 162.293 90.3361 162.827 91.2006 162.828L96.8425 162.834C97.7069 162.835 98.4156 162.301 98.4254 161.643L98.4419 160.53C98.4517 159.871 97.7588 159.337 96.8944 159.336Z" fill="#6C63FF"/>
<path d="M110.499 159.3L104.857 159.294C103.992 159.293 103.284 159.827 103.274 160.485L103.257 161.598C103.248 162.257 103.94 162.792 104.805 162.792L110.447 162.798C111.311 162.799 112.02 162.266 112.03 161.607L112.046 160.494C112.056 159.836 111.363 159.301 110.499 159.3Z" fill="#E6E6E6"/>
<path d="M147.855 159.509L120.323 159.487C119.456 159.486 118.745 160.026 118.736 160.692L118.721 161.818C118.712 162.485 119.407 163.026 120.274 163.026L147.806 163.048C148.673 163.049 149.384 162.509 149.393 161.843L149.408 160.717C149.418 160.05 148.722 159.509 147.855 159.509Z" fill="#F2F2F2"/>
<path d="M131.897 151.38L126.255 151.374C125.39 151.374 124.682 151.907 124.672 152.566L124.655 153.678C124.645 154.337 125.338 154.872 126.203 154.873L131.845 154.878C132.709 154.879 133.418 154.346 133.428 153.687L133.444 152.574C133.454 151.916 132.761 151.381 131.897 151.38Z" fill="#6C63FF"/>
<path d="M145.503 151.345L139.861 151.34C138.997 151.339 138.288 151.872 138.278 152.531L138.262 153.643C138.252 154.302 138.945 154.837 139.809 154.838L145.451 154.843C146.316 154.844 147.024 154.311 147.034 153.652L147.051 152.54C147.061 151.881 146.368 151.346 145.503 151.345Z" fill="#6C63FF"/>
<path d="M118.832 151.721L91.2995 151.699C90.4324 151.698 89.722 152.238 89.7128 152.904L89.6973 154.03C89.6881 154.697 90.3836 155.238 91.2506 155.238L118.783 155.26C119.65 155.261 120.36 154.721 120.369 154.055L120.385 152.929C120.394 152.262 119.699 151.721 118.832 151.721Z" fill="#E6E6E6"/>
<path d="M182.858 151.553L155.326 151.531C154.459 151.53 153.749 152.07 153.74 152.737L153.724 153.863C153.715 154.529 154.41 155.07 155.277 155.071L182.81 155.093C183.677 155.093 184.387 154.554 184.396 153.887L184.412 152.761C184.421 152.095 183.726 151.554 182.858 151.553Z" fill="#F2F2F2"/>
<path d="M122.417 143.54L116.775 143.535C115.91 143.534 115.202 144.067 115.192 144.726L115.176 145.839C115.166 146.497 115.859 147.032 116.723 147.033L122.365 147.039C123.229 147.039 123.938 146.506 123.948 145.848L123.964 144.735C123.974 144.076 123.281 143.541 122.417 143.54Z" fill="#E6E6E6"/>
<path d="M170.436 143.416L164.794 143.41C163.93 143.409 163.221 143.943 163.211 144.601L163.195 145.714C163.185 146.373 163.878 146.908 164.742 146.909L170.384 146.914C171.249 146.915 171.957 146.382 171.967 145.723L171.984 144.61C171.993 143.952 171.301 143.417 170.436 143.416Z" fill="#6C63FF"/>
<path d="M184.043 143.379L178.401 143.373C177.536 143.372 176.828 143.905 176.818 144.564L176.801 145.677C176.791 146.336 177.484 146.87 178.349 146.871L183.991 146.877C184.855 146.878 185.564 146.345 185.574 145.686L185.59 144.573C185.6 143.914 184.907 143.38 184.043 143.379Z" fill="#E6E6E6"/>
<path d="M157.372 143.756L129.84 143.734C128.973 143.733 128.263 144.273 128.253 144.939L128.238 146.065C128.229 146.732 128.924 147.273 129.791 147.274L157.323 147.296C158.19 147.296 158.901 146.757 158.91 146.09L158.925 144.964C158.935 144.297 158.239 143.757 157.372 143.756Z" fill="#E6E6E6"/>
<path d="M106.851 146.838C108.044 147.1 109.301 146.575 109.658 145.665C110.015 144.756 109.337 143.806 108.144 143.543C106.95 143.281 105.693 143.806 105.336 144.716C104.979 145.625 105.657 146.575 106.851 146.838Z" fill="#6C63FF"/>
<path d="M106.795 139.581C107.989 139.843 109.246 139.319 109.603 138.409C109.96 137.499 109.282 136.549 108.088 136.287C106.895 136.025 105.638 136.549 105.281 137.459C104.924 138.369 105.602 139.319 106.795 139.581Z" fill="#6C63FF"/>
<path d="M340.041 184.725L318.449 188.928C317.717 189.07 316.939 188.986 316.288 188.696C315.637 188.405 315.165 187.931 314.976 187.378L308.446 168.211C308.258 167.658 308.369 167.071 308.753 166.578C309.137 166.086 309.764 165.729 310.497 165.586L330.584 161.677L335.726 163.416L342.092 182.099C342.28 182.653 342.17 183.24 341.785 183.733C341.401 184.225 340.774 184.582 340.041 184.725Z" fill="#F2F2F2"/>
<path d="M310.704 166.187C310.182 166.289 309.736 166.543 309.462 166.893C309.188 167.244 309.11 167.662 309.243 168.056L315.773 187.223C315.908 187.617 316.244 187.954 316.708 188.161C317.171 188.368 317.725 188.427 318.246 188.326L339.839 184.124C340.36 184.022 340.806 183.768 341.08 183.417C341.354 183.067 341.432 182.649 341.299 182.255L335.032 163.86L330.513 162.331L310.704 166.187Z" fill="white"/>
<path d="M335.671 163.515L332.33 164.165C332.086 164.213 331.827 164.185 331.61 164.088C331.393 163.991 331.236 163.833 331.173 163.649L330.537 161.783C330.534 161.775 330.535 161.767 330.538 161.759C330.541 161.751 330.548 161.743 330.556 161.738C330.565 161.733 330.575 161.729 330.586 161.728C330.597 161.727 330.608 161.728 330.618 161.731L335.68 163.43C335.69 163.434 335.699 163.441 335.704 163.448C335.71 163.456 335.712 163.465 335.711 163.474C335.71 163.483 335.706 163.491 335.699 163.498C335.691 163.505 335.682 163.51 335.671 163.513L335.671 163.515Z" fill="#F2F2F2"/>
<path d="M333.913 179.882L324.081 181.796C324.021 181.807 323.958 181.81 323.896 181.803C323.834 181.797 323.775 181.781 323.721 181.757C323.668 181.733 323.621 181.701 323.583 181.664C323.546 181.626 323.518 181.583 323.503 181.537C323.487 181.492 323.484 181.444 323.492 181.398C323.501 181.351 323.522 181.306 323.554 181.265C323.586 181.225 323.628 181.189 323.677 181.161C323.727 181.133 323.784 181.112 323.844 181.1L333.675 179.187C333.735 179.175 333.798 179.173 333.86 179.179C333.922 179.186 333.981 179.202 334.035 179.226C334.089 179.25 334.136 179.281 334.173 179.319C334.211 179.357 334.238 179.4 334.253 179.445C334.269 179.491 334.272 179.538 334.264 179.585C334.255 179.632 334.234 179.677 334.202 179.717C334.171 179.758 334.129 179.793 334.079 179.822C334.029 179.85 333.972 179.871 333.912 179.882L333.913 179.882Z" fill="#CCCCCC"/>
<path d="M336.21 180.686L324.483 182.968C324.361 182.991 324.231 182.977 324.123 182.929C324.014 182.881 323.936 182.802 323.904 182.709C323.873 182.617 323.891 182.519 323.955 182.437C324.019 182.355 324.124 182.296 324.246 182.272L335.974 179.989C336.096 179.966 336.225 179.979 336.334 180.028C336.442 180.076 336.521 180.155 336.552 180.248C336.583 180.34 336.565 180.438 336.501 180.52C336.437 180.602 336.332 180.661 336.21 180.685V180.686Z" fill="#CCCCCC"/>
<path d="M320.071 184.1C320.998 184.1 321.749 183.532 321.749 182.831C321.749 182.13 320.998 181.562 320.071 181.562C319.144 181.562 318.392 182.13 318.392 182.831C318.392 183.532 319.144 184.1 320.071 184.1Z" fill="#E6E6E6"/>
<path d="M332.867 176.561L319.811 179.102C319.434 179.174 319.034 179.131 318.699 178.981C318.364 178.832 318.12 178.588 318.022 178.303L315.287 170.268C315.191 169.983 315.248 169.681 315.446 169.427C315.644 169.174 315.966 168.99 316.343 168.916L329.399 166.376C329.776 166.303 330.176 166.346 330.512 166.496C330.847 166.646 331.09 166.889 331.188 167.174L333.924 175.208C334.021 175.493 333.964 175.796 333.766 176.05C333.568 176.303 333.245 176.487 332.867 176.561Z" fill="white"/>
<path d="M332.867 176.561L319.811 179.102C319.434 179.174 319.034 179.131 318.699 178.981C318.364 178.832 318.12 178.588 318.022 178.303L315.287 170.268C315.191 169.983 315.248 169.681 315.446 169.427C315.644 169.174 315.966 168.99 316.343 168.916L329.399 166.376C329.776 166.303 330.176 166.346 330.512 166.496C330.847 166.646 331.09 166.889 331.188 167.174L333.924 175.208C334.021 175.493 333.964 175.796 333.766 176.05C333.568 176.303 333.245 176.487 332.867 176.561ZM316.388 169.044C316.056 169.109 315.771 169.271 315.596 169.495C315.421 169.718 315.371 169.985 315.456 170.237L318.192 178.271C318.278 178.522 318.493 178.737 318.789 178.87C319.085 179.002 319.438 179.04 319.771 178.975L332.827 176.435C333.16 176.37 333.445 176.208 333.619 175.984C333.794 175.76 333.844 175.493 333.759 175.242L331.023 167.208C330.937 166.957 330.722 166.741 330.427 166.609C330.131 166.477 329.777 166.439 329.444 166.504L316.388 169.044Z" fill="#E6E6E6"/>
<path d="M328.736 169.078L322.147 170.36C322.089 170.372 322.028 170.368 321.975 170.347C321.921 170.326 321.881 170.291 321.861 170.248C321.852 170.226 321.848 170.202 321.851 170.179C321.855 170.156 321.864 170.133 321.879 170.113C321.894 170.093 321.914 170.075 321.938 170.06C321.963 170.046 321.991 170.036 322.021 170.03L328.728 168.725C329.001 168.829 328.928 169.041 328.736 169.078H328.736Z" fill="#F2F2F2"/>
<path d="M329.034 169.952L322.445 171.234C322.387 171.246 322.325 171.242 322.272 171.221C322.219 171.2 322.179 171.165 322.159 171.122C322.149 171.1 322.146 171.076 322.149 171.053C322.152 171.03 322.162 171.007 322.177 170.987C322.192 170.967 322.212 170.949 322.236 170.934C322.261 170.92 322.289 170.91 322.319 170.904L329.026 169.599C329.299 169.703 329.226 169.915 329.033 169.952H329.034Z" fill="#F2F2F2"/>
<path d="M321.19 172.008L319.18 172.4C319.114 172.412 319.044 172.405 318.986 172.379C318.927 172.353 318.885 172.31 318.868 172.261L318.257 170.467C318.24 170.417 318.25 170.365 318.284 170.321C318.319 170.276 318.375 170.244 318.441 170.232L320.452 169.84C320.517 169.827 320.587 169.835 320.645 169.861C320.704 169.887 320.746 169.93 320.763 169.979L321.374 171.773C321.391 171.822 321.381 171.875 321.347 171.919C321.312 171.963 321.256 171.995 321.19 172.008Z" fill="#E6E6E6"/>
<path d="M329.624 171.745L319.568 173.701C319.51 173.713 319.449 173.708 319.396 173.688C319.342 173.667 319.302 173.632 319.282 173.589C319.272 173.567 319.269 173.543 319.272 173.52C319.275 173.497 319.285 173.474 319.3 173.454C319.315 173.434 319.335 173.416 319.359 173.401C319.384 173.387 319.412 173.377 319.442 173.371L329.616 171.391C329.888 171.495 329.816 171.707 329.624 171.745Z" fill="#F2F2F2"/>
<path d="M329.922 172.619L319.866 174.575C319.808 174.587 319.746 174.582 319.693 174.562C319.64 174.541 319.6 174.506 319.58 174.463C319.57 174.441 319.567 174.417 319.57 174.394C319.573 174.371 319.583 174.348 319.598 174.328C319.613 174.308 319.633 174.29 319.657 174.275C319.682 174.261 319.71 174.251 319.74 174.245L329.914 172.265C330.185 172.367 330.114 172.581 329.922 172.619Z" fill="#F2F2F2"/>
<path d="M330.22 173.492L320.163 175.448C320.105 175.46 320.044 175.456 319.991 175.435C319.938 175.414 319.897 175.379 319.877 175.336C319.868 175.314 319.865 175.29 319.868 175.267C319.871 175.244 319.88 175.221 319.895 175.201C319.91 175.181 319.93 175.163 319.955 175.148C319.979 175.134 320.007 175.124 320.037 175.118L330.211 173.138C330.483 173.242 330.412 173.454 330.22 173.492Z" fill="#F2F2F2"/>
<path d="M330.517 174.365L320.461 176.322C320.403 176.334 320.342 176.329 320.288 176.308C320.235 176.287 320.195 176.252 320.175 176.209C320.166 176.187 320.162 176.164 320.165 176.14C320.169 176.117 320.178 176.095 320.193 176.074C320.208 176.054 320.228 176.036 320.252 176.022C320.277 176.007 320.305 175.997 320.335 175.991L330.509 174.012C330.782 174.115 330.71 174.327 330.517 174.365Z" fill="#F2F2F2"/>
<path d="M330.815 175.239L320.758 177.196C320.701 177.208 320.639 177.203 320.586 177.182C320.533 177.161 320.492 177.126 320.472 177.083C320.463 177.061 320.46 177.038 320.463 177.014C320.466 176.991 320.475 176.969 320.49 176.948C320.505 176.928 320.525 176.91 320.55 176.896C320.574 176.881 320.602 176.871 320.632 176.865L330.806 174.886C331.078 174.989 331.007 175.201 330.815 175.239Z" fill="#F2F2F2"/>
<path d="M320.194 183.274C320.158 183.281 320.119 183.279 320.085 183.268L319.627 183.122C319.606 183.115 319.587 183.105 319.571 183.093C319.555 183.08 319.542 183.065 319.533 183.049C319.525 183.033 319.521 183.016 319.521 182.999C319.521 182.981 319.526 182.964 319.535 182.948C319.544 182.932 319.557 182.917 319.573 182.905C319.59 182.893 319.609 182.883 319.63 182.877C319.652 182.87 319.674 182.867 319.697 182.867C319.72 182.867 319.743 182.871 319.764 182.878L320.061 182.973L320.449 182.283C320.458 182.267 320.471 182.252 320.488 182.24C320.504 182.228 320.524 182.218 320.545 182.212C320.566 182.205 320.589 182.202 320.612 182.202C320.635 182.202 320.658 182.206 320.679 182.213C320.722 182.226 320.755 182.252 320.773 182.285C320.79 182.318 320.79 182.354 320.772 182.386L320.315 183.198C320.304 183.217 320.288 183.233 320.268 183.246C320.247 183.26 320.223 183.269 320.197 183.274L320.194 183.274Z" fill="white"/>
<path d="M348.324 192.028H326.026C325.27 192.027 324.545 191.8 324.011 191.396C323.476 190.992 323.175 190.444 323.175 189.872V170.08C323.175 169.509 323.476 168.961 324.011 168.557C324.545 168.153 325.27 167.926 326.026 167.925H346.769L351.175 170.579V189.872C351.174 190.444 350.873 190.991 350.339 191.396C349.804 191.8 349.079 192.027 348.324 192.028Z" fill="#E6E6E6"/>
<path d="M326.028 168.546C325.49 168.546 324.974 168.708 324.593 168.996C324.212 169.284 323.998 169.674 323.997 170.081V189.873C323.998 190.28 324.212 190.67 324.593 190.958C324.974 191.246 325.49 191.408 326.028 191.408H348.325C348.864 191.408 349.38 191.246 349.761 190.958C350.141 190.67 350.355 190.28 350.356 189.873V170.878L346.485 168.546H326.028Z" fill="white"/>
<path d="M343.986 174.301H333.832C333.706 174.301 333.585 174.263 333.496 174.196C333.407 174.129 333.357 174.037 333.357 173.942C333.357 173.847 333.407 173.755 333.496 173.688C333.585 173.621 333.706 173.583 333.832 173.583H343.981C344.107 173.583 344.228 173.621 344.317 173.688C344.406 173.755 344.456 173.847 344.456 173.942C344.456 174.037 344.406 174.129 344.317 174.196C344.228 174.263 344.107 174.301 343.981 174.301H343.986Z" fill="#6C63FF"/>
<path d="M345.946 175.513H333.832C333.706 175.513 333.585 175.475 333.496 175.407C333.407 175.34 333.357 175.249 333.357 175.154C333.357 175.058 333.407 174.967 333.496 174.9C333.585 174.832 333.706 174.794 333.832 174.794H345.946C346.072 174.794 346.193 174.832 346.282 174.9C346.371 174.967 346.421 175.058 346.421 175.154C346.421 175.249 346.371 175.34 346.282 175.407C346.193 175.475 346.072 175.513 345.946 175.513Z" fill="#6C63FF"/>
<path d="M343.986 179.012H333.837C333.711 179.012 333.59 179.05 333.501 179.117C333.412 179.185 333.362 179.276 333.362 179.371C333.362 179.466 333.412 179.558 333.501 179.625C333.59 179.692 333.711 179.73 333.837 179.73H343.986C344.112 179.73 344.233 179.692 344.322 179.625C344.411 179.558 344.461 179.466 344.461 179.371C344.461 179.276 344.411 179.185 344.322 179.117C344.233 179.05 344.112 179.012 343.986 179.012Z" fill="#CCCCCC"/>
<path d="M345.944 180.224H333.835C333.709 180.224 333.589 180.262 333.499 180.329C333.41 180.396 333.36 180.488 333.36 180.583C333.36 180.678 333.41 180.769 333.499 180.837C333.589 180.904 333.709 180.942 333.835 180.942H345.944C346.07 180.942 346.19 180.904 346.279 180.837C346.369 180.769 346.419 180.678 346.419 180.583C346.419 180.488 346.369 180.396 346.279 180.329C346.19 180.262 346.07 180.224 345.944 180.224Z" fill="#CCCCCC"/>
<path d="M343.986 185.157H333.832C333.706 185.157 333.585 185.119 333.496 185.052C333.407 184.985 333.357 184.893 333.357 184.798C333.357 184.703 333.407 184.611 333.496 184.544C333.585 184.477 333.706 184.439 333.832 184.439H343.981C344.107 184.439 344.228 184.477 344.317 184.544C344.406 184.611 344.456 184.703 344.456 184.798C344.456 184.893 344.406 184.985 344.317 185.052C344.228 185.119 344.107 185.157 343.981 185.157H343.986Z" fill="#CCCCCC"/>
<path d="M345.946 186.37H333.832C333.706 186.37 333.585 186.332 333.496 186.265C333.407 186.198 333.357 186.106 333.357 186.011C333.357 185.916 333.407 185.825 333.496 185.757C333.585 185.69 333.706 185.652 333.832 185.652H345.946C346.072 185.652 346.193 185.69 346.282 185.757C346.371 185.825 346.421 185.916 346.421 186.011C346.421 186.106 346.371 186.198 346.282 186.265C346.193 186.332 346.072 186.37 345.946 186.37Z" fill="#CCCCCC"/>
<path d="M329.608 175.817C330.535 175.817 331.286 175.249 331.286 174.548C331.286 173.847 330.535 173.279 329.608 173.279C328.681 173.279 327.929 173.847 327.929 174.548C327.929 175.249 328.681 175.817 329.608 175.817Z" fill="#6C63FF"/>
<path d="M329.442 175.031C329.404 175.031 329.368 175.022 329.337 175.005L328.943 174.777C328.906 174.755 328.882 174.724 328.876 174.689C328.87 174.654 328.882 174.619 328.91 174.591C328.939 174.563 328.981 174.545 329.027 174.54C329.073 174.535 329.119 174.545 329.156 174.566L329.412 174.714L330.016 174.119C330.044 174.091 330.086 174.073 330.132 174.068C330.178 174.064 330.224 174.073 330.261 174.094C330.298 174.116 330.322 174.147 330.328 174.182C330.334 174.217 330.322 174.252 330.293 174.28L329.584 174.981C329.568 174.997 329.546 175.01 329.522 175.019C329.498 175.028 329.471 175.033 329.444 175.033L329.442 175.031Z" fill="white"/>
<path d="M331.458 179.977C331.459 180.144 331.415 180.309 331.331 180.463C331.247 180.617 331.123 180.757 330.967 180.874C330.811 180.992 330.626 181.086 330.422 181.15C330.219 181.213 330 181.246 329.78 181.246C329.766 181.247 329.751 181.247 329.737 181.246C329.407 181.24 329.087 181.16 328.816 181.017C328.546 180.873 328.338 180.673 328.217 180.441C328.097 180.208 328.07 179.954 328.139 179.71C328.209 179.466 328.372 179.243 328.609 179.069C328.845 178.895 329.144 178.778 329.469 178.731C329.793 178.685 330.128 178.712 330.433 178.809C330.737 178.906 330.996 179.069 331.179 179.277C331.361 179.485 331.459 179.729 331.458 179.978V179.977Z" fill="#6C63FF"/>
<path d="M329.608 186.674C330.535 186.674 331.286 186.106 331.286 185.406C331.286 184.705 330.535 184.137 329.608 184.137C328.681 184.137 327.929 184.705 327.929 185.406C327.929 186.106 328.681 186.674 329.608 186.674Z" fill="#CCCCCC"/>
<path d="M351.089 170.664H347.637C347.385 170.664 347.143 170.588 346.965 170.454C346.787 170.319 346.687 170.136 346.687 169.946V168.019C346.687 168.011 346.69 168.003 346.696 167.996C346.702 167.989 346.711 167.983 346.721 167.979C346.731 167.976 346.742 167.974 346.753 167.975C346.764 167.976 346.774 167.979 346.783 167.984L351.124 170.583C351.134 170.589 351.141 170.596 351.144 170.605C351.148 170.614 351.147 170.624 351.143 170.633C351.139 170.641 351.132 170.649 351.122 170.654C351.112 170.66 351.1 170.663 351.087 170.663L351.089 170.664Z" fill="#CCCCCC"/>
<path d="M333.36 179.371C333.36 179.276 333.41 179.185 333.499 179.118C333.588 179.05 333.709 179.012 333.835 179.012H336.365C336.513 179.239 336.618 179.481 336.677 179.73H333.835C333.709 179.73 333.589 179.693 333.499 179.625C333.41 179.558 333.36 179.467 333.36 179.372V179.371Z" fill="#6C63FF"/>
<path d="M336.736 180.224C336.736 180.466 336.693 180.708 336.61 180.942H333.835C333.709 180.942 333.589 180.904 333.499 180.837C333.41 180.769 333.36 180.678 333.36 180.583C333.36 180.488 333.41 180.396 333.499 180.329C333.589 180.262 333.709 180.224 333.835 180.224H336.736Z" fill="#6C63FF"/>
<path d="M363.775 198.408C363.709 198.49 363.623 198.56 363.522 198.616C363.42 198.672 363.305 198.713 363.182 198.735C363.06 198.758 362.933 198.762 362.809 198.747C362.684 198.732 362.565 198.699 362.458 198.65L351.277 193.494C351.06 193.394 350.904 193.233 350.844 193.046C350.784 192.86 350.825 192.663 350.958 192.498C351.09 192.334 351.303 192.217 351.55 192.172C351.797 192.126 352.058 192.157 352.275 192.257L363.456 197.412C363.563 197.462 363.657 197.527 363.731 197.604C363.805 197.681 363.859 197.768 363.888 197.86C363.918 197.953 363.923 198.049 363.904 198.143C363.884 198.237 363.84 198.327 363.775 198.408Z" fill="#3F3D56"/>
<path d="M352.595 193.254C351.805 194.233 350.649 195.012 349.274 195.494C347.898 195.976 346.364 196.139 344.866 195.962C343.368 195.785 341.973 195.276 340.857 194.5C339.741 193.724 338.955 192.715 338.598 191.601C338.241 190.487 338.329 189.318 338.851 188.242C339.373 187.166 340.306 186.231 341.531 185.556C342.755 184.88 344.218 184.494 345.733 184.447C347.248 184.4 348.748 184.693 350.042 185.29C351.778 186.09 353.022 187.379 353.5 188.873C353.979 190.366 353.653 191.942 352.595 193.254ZM341.141 187.975C340.549 188.709 340.258 189.559 340.305 190.418C340.352 191.276 340.735 192.105 341.405 192.8C342.076 193.494 343.003 194.022 344.071 194.318C345.139 194.614 346.299 194.664 347.404 194.461C348.509 194.259 349.51 193.813 350.28 193.181C351.05 192.549 351.555 191.758 351.731 190.909C351.906 190.06 351.745 189.19 351.266 188.41C350.788 187.63 350.015 186.975 349.044 186.528C348.399 186.231 347.684 186.032 346.938 185.944C346.192 185.856 345.43 185.88 344.696 186.014C343.962 186.149 343.271 186.391 342.661 186.727C342.051 187.064 341.534 187.488 341.141 187.975Z" fill="#3F3D56"/>
<path d="M246.815 184.469C246.719 184.469 246.625 184.454 246.538 184.425C246.45 184.395 246.372 184.353 246.308 184.299L238.7 178.026C238.614 177.955 238.509 177.899 238.392 177.86C238.275 177.821 238.149 177.801 238.021 177.801H197.819C197.209 177.8 196.624 177.617 196.193 177.291C195.762 176.965 195.519 176.523 195.518 176.062V165.103C195.519 164.642 195.762 164.2 196.193 163.874C196.624 163.548 197.209 163.365 197.819 163.364H249.904C250.514 163.365 251.099 163.548 251.531 163.874C251.962 164.2 252.205 164.642 252.205 165.103V176.06C252.205 176.521 251.962 176.963 251.531 177.289C251.099 177.616 250.514 177.799 249.904 177.799H248.428C248.184 177.8 247.95 177.873 247.777 178.004C247.605 178.134 247.508 178.311 247.507 178.495V183.945C247.508 184.051 247.466 184.154 247.388 184.24C247.309 184.327 247.197 184.394 247.067 184.432C246.987 184.455 246.902 184.468 246.815 184.468L246.815 184.469Z" fill="white"/>
<path d="M246.815 184.469C246.719 184.469 246.625 184.454 246.538 184.425C246.45 184.395 246.372 184.353 246.308 184.299L238.7 178.026C238.614 177.955 238.509 177.899 238.392 177.86C238.275 177.821 238.149 177.801 238.021 177.801H197.819C197.209 177.8 196.624 177.617 196.193 177.291C195.762 176.965 195.519 176.523 195.518 176.062V165.103C195.519 164.642 195.762 164.2 196.193 163.874C196.624 163.548 197.209 163.365 197.819 163.364H249.904C250.514 163.365 251.099 163.548 251.531 163.874C251.962 164.2 252.205 164.642 252.205 165.103V176.06C252.205 176.521 251.962 176.963 251.531 177.289C251.099 177.616 250.514 177.799 249.904 177.799H248.428C248.184 177.8 247.95 177.873 247.777 178.004C247.605 178.134 247.508 178.311 247.507 178.495V183.945C247.508 184.051 247.466 184.154 247.388 184.24C247.309 184.327 247.197 184.394 247.067 184.432C246.987 184.455 246.902 184.468 246.815 184.468L246.815 184.469ZM197.819 163.596C197.291 163.596 196.784 163.755 196.41 164.038C196.036 164.32 195.826 164.704 195.825 165.103V176.06C195.826 176.46 196.036 176.843 196.41 177.126C196.784 177.408 197.291 177.567 197.819 177.568H238.021C238.192 177.568 238.36 177.595 238.516 177.646C238.671 177.698 238.811 177.774 238.926 177.868L246.534 184.141C246.586 184.185 246.654 184.216 246.729 184.229C246.805 184.243 246.884 184.239 246.957 184.218C247.029 184.196 247.091 184.159 247.135 184.11C247.178 184.062 247.201 184.004 247.2 183.945V178.496C247.2 178.251 247.33 178.015 247.56 177.841C247.79 177.667 248.102 177.569 248.427 177.569H249.904C250.433 177.569 250.94 177.41 251.313 177.127C251.687 176.844 251.898 176.461 251.898 176.062V165.103C251.898 164.704 251.687 164.32 251.313 164.038C250.94 163.755 250.433 163.596 249.904 163.596H197.819Z" fill="#D6D6E3"/>
<path d="M201.163 168.198C202.275 168.198 203.176 167.516 203.176 166.676C203.176 165.835 202.275 165.154 201.163 165.154C200.051 165.154 199.149 165.835 199.149 166.676C199.149 167.516 200.051 168.198 201.163 168.198Z" fill="#6C63FF"/>
<path d="M247.555 175.099H200.169C199.884 175.099 199.611 175.014 199.409 174.861C199.208 174.709 199.095 174.503 199.095 174.287C199.095 174.072 199.208 173.866 199.409 173.714C199.611 173.561 199.884 173.476 200.169 173.476H247.555C247.696 173.476 247.836 173.497 247.966 173.538C248.096 173.578 248.215 173.638 248.314 173.714C248.414 173.789 248.493 173.878 248.547 173.977C248.601 174.075 248.629 174.181 248.629 174.287C248.629 174.394 248.601 174.5 248.547 174.598C248.493 174.697 248.414 174.786 248.314 174.861C248.215 174.937 248.096 174.997 247.966 175.037C247.836 175.078 247.696 175.099 247.555 175.099Z" fill="#6C63FF"/>
<path d="M232.118 171.648H200.169C199.884 171.648 199.611 171.563 199.409 171.411C199.208 171.258 199.095 171.052 199.095 170.837C199.095 170.621 199.208 170.415 199.409 170.263C199.611 170.111 199.884 170.025 200.169 170.025H232.118C232.403 170.025 232.676 170.111 232.878 170.263C233.079 170.415 233.192 170.621 233.192 170.837C233.192 171.052 233.079 171.258 232.878 171.411C232.676 171.563 232.403 171.648 232.118 171.648Z" fill="#6C63FF"/>
<path d="M252.206 192.138C251.377 192.138 250.583 191.889 249.997 191.446C249.411 191.003 249.082 190.403 249.081 189.777V184.649C249.081 184.023 249.41 183.422 249.996 182.979C250.582 182.536 251.377 182.287 252.206 182.287C253.034 182.287 253.829 182.536 254.415 182.979C255.001 183.422 255.33 184.023 255.33 184.649V189.777C255.329 190.403 255 191.003 254.414 191.446C253.828 191.889 253.034 192.138 252.206 192.138Z" fill="#6C63FF"/>
<path d="M252.206 194.095C250.454 194.093 248.775 193.567 247.537 192.631C246.298 191.695 245.602 190.426 245.6 189.102C245.604 188.997 245.663 188.897 245.763 188.824C245.863 188.751 245.996 188.71 246.135 188.71C246.275 188.71 246.408 188.751 246.508 188.824C246.608 188.897 246.667 188.997 246.671 189.102C246.671 189.651 246.814 190.195 247.092 190.703C247.37 191.21 247.778 191.672 248.292 192.06C248.806 192.449 249.416 192.757 250.088 192.967C250.759 193.177 251.479 193.285 252.206 193.285C252.932 193.285 253.652 193.177 254.324 192.967C254.995 192.757 255.605 192.449 256.119 192.06C256.633 191.672 257.041 191.21 257.319 190.703C257.597 190.195 257.74 189.651 257.74 189.102C257.738 189.048 257.75 188.994 257.776 188.943C257.802 188.893 257.841 188.846 257.891 188.807C257.941 188.768 258.001 188.737 258.067 188.716C258.133 188.695 258.204 188.684 258.276 188.684C258.348 188.684 258.419 188.695 258.485 188.716C258.551 188.737 258.611 188.768 258.661 188.807C258.711 188.846 258.75 188.893 258.776 188.943C258.802 188.994 258.814 189.048 258.811 189.102C258.809 190.426 258.113 191.695 256.874 192.631C255.636 193.567 253.957 194.093 252.206 194.095Z" fill="#6C63FF"/>
<path d="M252.205 198.683C252.063 198.683 251.927 198.64 251.826 198.564C251.726 198.488 251.669 198.386 251.669 198.278V193.824C251.674 193.719 251.732 193.619 251.832 193.546C251.932 193.473 252.066 193.432 252.205 193.432C252.344 193.432 252.478 193.473 252.578 193.546C252.678 193.619 252.736 193.719 252.74 193.824V198.278C252.74 198.331 252.726 198.384 252.7 198.433C252.673 198.482 252.633 198.527 252.583 198.565C252.534 198.602 252.475 198.632 252.41 198.652C252.345 198.673 252.275 198.683 252.204 198.683L252.205 198.683Z" fill="#6C63FF"/>
<path d="M250.955 184.109C251.152 184.109 251.312 183.989 251.312 183.84C251.312 183.691 251.152 183.57 250.955 183.57C250.758 183.57 250.598 183.691 250.598 183.84C250.598 183.989 250.758 184.109 250.955 184.109Z" fill="white"/>
<path d="M250.955 186.672C251.152 186.672 251.312 186.552 251.312 186.403C251.312 186.254 251.152 186.133 250.955 186.133C250.758 186.133 250.598 186.254 250.598 186.403C250.598 186.552 250.758 186.672 250.955 186.672Z" fill="white"/>
<path d="M253.455 185.053C253.652 185.053 253.812 184.933 253.812 184.784C253.812 184.635 253.652 184.514 253.455 184.514C253.258 184.514 253.098 184.635 253.098 184.784C253.098 184.933 253.258 185.053 253.455 185.053Z" fill="white"/>
<path d="M256.448 198.756H247.963C247.891 198.758 247.82 198.748 247.753 198.729C247.686 198.709 247.625 198.68 247.573 198.642C247.521 198.604 247.48 198.559 247.452 198.509C247.424 198.459 247.41 198.405 247.41 198.351C247.41 198.297 247.424 198.243 247.452 198.193C247.48 198.143 247.521 198.098 247.573 198.06C247.625 198.022 247.686 197.993 247.753 197.973C247.82 197.954 247.891 197.945 247.963 197.946H256.448C256.52 197.945 256.591 197.954 256.658 197.973C256.725 197.993 256.786 198.022 256.838 198.06C256.889 198.098 256.93 198.143 256.958 198.193C256.986 198.243 257.001 198.297 257.001 198.351C257.001 198.405 256.986 198.459 256.958 198.509C256.93 198.559 256.889 198.604 256.838 198.642C256.786 198.68 256.725 198.709 256.658 198.729C256.591 198.748 256.52 198.758 256.448 198.756Z" fill="#6C63FF"/>
<path d="M396.607 19.806C393.273 21.1943 390.434 20.2222 387.685 22.2113C388.371 20.4544 388.225 18.5716 387.272 16.8873C386.944 16.3128 386.246 13.6922 386.48 13.0929C386.712 12.664 390.191 12.7947 391.41 12.2446C392.26 11.8602 394.008 10.837 394.983 10.9483C395.035 11.9447 395.061 12.8352 395.638 13.7664C395.776 13.9858 397.182 19.5664 396.607 19.806Z" fill="#FFB9B9"/>
<path d="M390.806 16.1527L381.885 16.3536L380.023 17.8907L377.188 26.1925V39.3217C377.188 39.3217 373.725 43.9553 375.614 48.0103C377.633 52.3441 384.745 47.2288 390.098 47.8128C395.45 48.3968 403.951 48.9758 403.951 48.9758L398.914 34.8811L402.886 18.3877L397.89 14.5038L390.806 16.1536V16.1527Z" fill="#E6E6E6"/>
<path d="M356.566 20.6569C354.781 19.4942 354.129 17.8556 355.108 16.9974C356.087 16.1391 358.327 16.3862 360.112 17.5496C360.834 18.0069 361.4 18.5881 361.763 19.2447L369.243 24.2437L366.064 26.8466L359.029 21.6421C358.116 21.4672 357.271 21.1295 356.567 20.6573L356.566 20.6569Z" fill="#FFB6B6"/>
<path d="M382.188 16.3532L387.115 16.0146L391.435 31.5887C391.63 32.293 391.637 33.0198 391.455 33.7261C391.273 34.4325 390.905 35.1041 390.374 35.7015C389.844 36.2989 389.16 36.81 388.364 37.2046C387.568 37.5993 386.675 37.8695 385.739 37.9994L382.188 38.4923L359.556 23.4313L362.863 19.2657L379.553 27.179L382.189 16.3528L382.188 16.3532Z" fill="#E6E6E6"/>
<path d="M368.096 92.7579C368.096 92.7579 363.596 99.0742 363.918 98.8313C364.239 98.5884 369.702 100.046 369.702 100.046L372.916 93.7296L368.096 92.7579Z" fill="#FFB6B6"/>
<path d="M361.455 48.5436C361.455 48.5436 359.152 55.5033 359.382 55.208C359.612 54.9127 365.384 55.3086 365.384 55.3086L366.442 48.5885L361.452 48.544L361.455 48.5436Z" fill="#FFB6B6"/>
<path d="M401.525 47.3735C391.355 48.4533 382.17 47.5117 374.686 43.0764C374.686 43.0764 369.222 56.9241 379.186 58.3816C389.15 59.8392 400.239 57.3341 401.525 54.9045C402.81 52.4748 401.525 47.3735 401.525 47.3735Z" fill="#090814"/>
<path d="M382.563 51.7465L371.474 71.5018L366.331 94.3383L373.081 95.5529L385.155 74.5385L401.525 54.4199L382.563 51.7465Z" fill="#090814"/>
<path d="M381.114 46.1136C381.114 46.1136 378.543 31.0513 373.722 30.0792C371.703 29.6851 369.602 29.5979 367.538 29.8227C366.735 29.9059 365.988 30.1795 365.404 30.6042C364.82 31.0289 364.429 31.5827 364.288 32.1859L359.907 51.0177H366.102L368.097 45.916L373.4 52.9157L381.114 46.1136Z" fill="#090814"/>
<path d="M365.365 53.4012L359.239 52.9153L358.294 55.5879C358.294 55.5879 348.329 62.3904 353.472 62.8763C358.615 63.3621 363.437 60.6904 363.437 60.6904L370.511 57.6232C370.511 57.6232 367.776 52.1115 365.847 52.1115C363.919 52.1115 365.365 53.4012 365.365 53.4012Z" fill="#090814"/>
<path d="M368.579 98.953L362.453 98.4672L361.508 101.14C361.508 101.14 351.543 107.942 356.686 108.428C361.829 108.914 366.65 106.242 366.65 106.242L373.725 103.175C373.725 103.175 373.239 97.4196 371.311 97.4196C369.383 97.4196 368.579 98.953 368.579 98.953Z" fill="#090814"/>
<path d="M399.125 61.7668C398.452 63.5118 396.715 64.6633 395.246 64.3396C393.778 64.0158 393.133 62.3389 393.806 60.5935C394.062 59.8934 394.537 59.25 395.19 58.7169L398.165 51.3514L402.708 52.4806L399.293 59.6218C399.465 60.3365 399.407 61.0719 399.126 61.7664L399.125 61.7668Z" fill="#FFB6B6"/>
<path d="M402.27 16.6365L399.9 16.1317C397.667 19.491 396.706 23.252 397.125 26.9983L398.295 37.4522L394.437 55.8266L401.999 57.3052L407.957 34.2463L402.27 16.6365Z" fill="#E6E6E6"/>
<path d="M351.32 20.4032L351.005 12.8946C351.002 12.8341 351.016 12.7739 351.046 12.7179C351.076 12.6618 351.121 12.611 351.179 12.5689C351.236 12.5267 351.304 12.4941 351.379 12.4731C351.454 12.452 351.534 12.443 351.614 12.4467L359.497 12.8038C359.576 12.8074 359.654 12.8233 359.724 12.8505C359.795 12.8777 359.857 12.9155 359.907 12.9618C359.958 13.008 359.995 13.0615 360.016 13.1191C360.038 13.1766 360.044 13.237 360.033 13.2963L358.7 20.7612C358.68 20.8704 358.606 20.9698 358.493 21.0395C358.38 21.1092 358.237 21.144 358.091 21.1369L351.856 20.8251C351.795 20.8221 351.734 20.8117 351.677 20.7942C351.574 20.7626 351.485 20.7089 351.421 20.6398C351.358 20.5707 351.322 20.489 351.319 20.4049L351.32 20.4032Z" fill="#6C63FF"/>
<path d="M351.015 12.1918C351.124 12.1831 351.273 12.1724 351.451 12.1608C351.402 12.0915 351.385 12.0114 351.405 11.934L351.545 11.3715C351.563 11.3003 351.61 11.2352 351.679 11.1853C351.749 11.1355 351.837 11.1035 351.932 11.0939C353.093 10.9768 357.086 10.6584 359.599 11.5203C359.676 11.5471 359.742 11.5897 359.788 11.6432C359.835 11.6967 359.861 11.759 359.863 11.8231L359.886 12.4232C359.889 12.4942 359.862 12.5641 359.81 12.6232C360.019 12.6644 360.227 12.7106 360.434 12.7597C360.497 12.7749 360.553 12.8037 360.596 12.8426C360.638 12.8814 360.664 12.9287 360.672 12.9787L360.711 13.2344C360.716 13.2723 360.711 13.3107 360.694 13.3468C360.678 13.3829 360.652 13.4159 360.617 13.4434C360.582 13.4709 360.539 13.4923 360.492 13.5061C360.445 13.5199 360.395 13.5257 360.344 13.5231L350.918 13.0443C350.868 13.0417 350.819 13.0308 350.775 13.0124C350.731 12.994 350.692 12.9685 350.663 12.9377C350.633 12.9068 350.612 12.8714 350.603 12.834C350.593 12.7966 350.594 12.758 350.606 12.7209L350.715 12.391C350.732 12.3385 350.77 12.2912 350.823 12.2556C350.877 12.2199 350.944 12.1976 351.015 12.1918Z" fill="#3F3D56"/>
<path d="M390.144 14.2952C394.55 14.2952 398.122 11.5954 398.122 8.26505C398.122 4.93471 394.55 2.23494 390.144 2.23494C385.738 2.23494 382.166 4.93471 382.166 8.26505C382.166 11.5954 385.738 14.2952 390.144 14.2952Z" fill="#FFB7B7"/>
<path d="M395.613 2.07412L395.771 1.42827L393.634 1.12842C393.634 1.12842 390.613 -0.966297 387.145 0.551025C383.677 2.06835 382.158 2.85856 382.158 2.85856L380.558 3.97212L381.759 4.47487L380.239 5.26384L381.52 5.44366L380.429 6.29285L382.23 9.05157C382.23 9.05157 382.566 6.59268 385.13 6.95273C387.694 7.31278 391.32 5.14795 391.32 5.14795L396.857 9.60217C396.857 9.60217 396.904 7.61344 398.4 7.81883C398.405 7.81636 400.234 3.05652 395.613 2.07412Z" fill="#090814"/>
</g>
</g>
<defs>
<clipPath id="clip0_27_359">
<rect width="436" height="312" fill="white"/>
</clipPath>
<clipPath id="clip1_27_359">
<rect width="436" height="312" fill="white"/>
</clipPath>
</defs>
</svg>
