<svg width="436" height="312" viewBox="0 0 436 312" fill="none" xmlns="http://www.w3.org/2000/svg">
<g clip-path="url(#clip0_27_145)">
<path d="M14.1592 165.164C11.7438 166.388 9.00153 166.652 6.42202 165.907C3.8425 165.162 1.59375 163.457 0.077359 161.097C-0.227796 160.618 0.45063 160.087 0.756331 160.566C2.16456 162.767 4.25945 164.354 6.66286 165.043C9.06626 165.731 11.6199 165.475 13.8628 164.321C14.3505 164.071 14.6442 164.915 14.1592 165.165V165.164Z" fill="white"/>
<path d="M6.06238 140.386C7.08862 140.122 8.03758 139.588 8.82412 138.833C9.61066 138.077 10.2102 137.124 10.5689 136.059C10.7509 135.512 11.5154 135.887 11.3318 136.431C10.9308 137.606 10.2677 138.658 9.40034 139.495C8.53298 140.332 7.48779 140.929 6.35608 141.232C6.25167 141.27 6.13781 141.264 6.03743 141.215C5.93704 141.167 5.85756 141.079 5.81498 140.97C5.79549 140.914 5.78644 140.855 5.78833 140.795C5.79022 140.736 5.80301 140.677 5.82599 140.623C5.84896 140.569 5.88166 140.52 5.92222 140.479C5.96278 140.439 6.01041 140.407 6.06238 140.386Z" fill="white"/>
<path d="M312.177 280.161H115.612C112.041 280.165 108.618 281.69 106.093 284.399C103.568 287.109 102.147 290.782 102.143 294.614C102.141 296.457 102.471 298.282 103.115 299.991C104.115 302.67 105.839 304.967 108.067 306.586C110.294 308.204 112.922 309.07 115.612 309.072H312.177C314.528 309.071 316.839 308.409 318.878 307.153C320.917 305.897 322.615 304.09 323.801 301.912C324.139 301.296 324.433 300.654 324.679 299.99C325.323 298.282 325.653 296.456 325.651 294.613C325.646 290.781 324.224 287.107 321.699 284.398C319.173 281.689 315.749 280.165 312.178 280.16L312.177 280.161Z" fill="#CCCCCC"/>
<path d="M229.012 148.488H200.379V184.603H229.012V148.488Z" fill="#ED9DA0"/>
<path d="M210.404 125.177H213.397C214.852 125.178 216.248 125.798 217.276 126.903C218.305 128.007 218.883 129.505 218.883 131.066H204.916C204.916 129.504 205.494 128.006 206.523 126.902C207.552 125.798 208.948 125.177 210.404 125.177Z" fill="#CCCCCC"/>
<path d="M214.778 158.586C231.853 158.586 245.695 143.732 245.695 125.409C245.695 107.087 231.853 92.2331 214.778 92.2331C197.703 92.2331 183.861 107.087 183.861 125.409C183.861 143.732 197.703 158.586 214.778 158.586Z" fill="#ED9DA0"/>
<path d="M180.289 93.4932C180.523 89.683 182.871 85.7846 190.33 83.7474C190.33 83.7474 203.133 66.1807 220.529 75.3926C220.529 75.3926 228.963 73.8355 235.217 83.2281C235.217 83.2281 241.418 79.3039 244.033 86.2594C244.033 86.2594 251.305 100.447 248.628 114.919C245.951 129.39 244.58 131.196 244.58 131.196C244.58 131.196 247.993 101.262 228.337 103.338C208.682 105.414 192.857 97.9963 188.406 114.236C184.71 127.721 185.176 134.724 185.176 134.724C185.176 134.724 172.816 121.272 177.018 110.679C179.169 105.259 179.928 99.3686 180.289 93.4932Z" fill="#090814"/>
<path d="M130.702 306.717H301.713C300.569 292.719 299.824 239.211 299.824 235.69C299.824 220.157 287.979 203.206 287.979 203.206L283.74 200.692L248.335 188.839L239.172 176.066C238.212 174.725 236.976 173.641 235.56 172.899C234.144 172.157 232.587 171.778 231.012 171.791L202.068 172.025C199.52 172.045 197.072 173.086 195.202 174.944L177.279 192.785L150.993 206.255L150.949 206.207L150.676 206.426L146.775 209.441L144.269 211.387C144.269 211.387 137.681 219.862 132.419 245.282C131.627 249.105 131.072 298.598 130.702 306.717Z" fill="#6C63FF"/>
<path d="M341.296 299.991C340.884 300.394 340.467 300.793 340.051 301.192C338.475 302.696 336.876 304.174 335.256 305.626C332.806 307.817 330.306 309.942 327.755 312H97.5402C92.8539 308.223 88.3389 304.219 83.9951 299.988L341.296 299.991Z" fill="#CCCCCC"/>
<path d="M256.91 302.874H172.28L174.071 293.745H255.117L256.91 302.874Z" fill="#090814"/>
<path d="M333.473 263.477H311.452C310.955 263.475 310.463 263.59 310.012 263.815C309.561 264.039 309.161 264.366 308.841 264.774C308.534 264.711 308.222 264.679 307.91 264.678C306.525 264.678 305.196 265.269 304.217 266.32C303.237 267.371 302.687 268.796 302.687 270.283C302.687 271.769 303.237 273.195 304.217 274.246C305.196 275.297 306.525 275.888 307.91 275.888C308.698 275.888 309.476 275.694 310.184 275.321L310.552 280.164L312.011 299.306C312.081 299.545 312.174 299.776 312.289 299.993C312.584 300.575 313.019 301.06 313.55 301.398C314.08 301.737 314.685 301.915 315.302 301.916H329.623C330.241 301.915 330.846 301.736 331.377 301.398C331.908 301.06 332.345 300.575 332.641 299.993C332.753 299.775 332.844 299.545 332.913 299.306L336.764 268.257C336.923 267.704 336.958 267.119 336.867 266.55C336.777 265.98 336.563 265.44 336.243 264.975C335.923 264.51 335.505 264.133 335.024 263.872C334.543 263.612 334.012 263.476 333.473 263.476V263.477ZM307.91 274.288C306.92 274.288 305.971 273.866 305.271 273.115C304.571 272.363 304.178 271.345 304.178 270.282C304.178 269.22 304.571 268.201 305.271 267.45C305.971 266.699 306.92 266.277 307.91 266.277C307.977 266.277 308.04 266.296 308.108 266.301C307.961 266.946 307.979 267.622 308.162 268.256L309.738 273.753C309.183 274.099 308.553 274.283 307.911 274.286L307.91 274.288Z" fill="#090814"/>
<path d="M283.735 161.885H144.336C143.138 161.886 141.99 162.397 141.143 163.306C140.296 164.215 139.82 165.447 139.818 166.733V267.673C139.82 268.958 140.296 270.19 141.143 271.099C141.99 272.008 143.138 272.519 144.336 272.521H283.735C284.933 272.519 286.081 272.008 286.928 271.099C287.775 270.19 288.252 268.958 288.253 267.673V166.733C288.252 165.447 287.775 164.215 286.928 163.306C286.081 162.397 284.933 161.886 283.735 161.885Z" fill="#3F3D56"/>
<path d="M229.735 242.765H197.124C196.895 242.766 196.669 242.814 196.458 242.909C196.247 243.003 196.055 243.141 195.894 243.314C195.733 243.488 195.605 243.694 195.518 243.921C195.431 244.148 195.386 244.391 195.387 244.636V299.916H231.477V244.634C231.477 244.388 231.432 244.145 231.345 243.917C231.257 243.69 231.129 243.484 230.967 243.31C230.805 243.136 230.612 242.998 230.401 242.904C230.189 242.811 229.962 242.762 229.733 242.763L229.735 242.765ZM213.539 274.174C212.519 274.169 211.542 273.732 210.821 272.958C210.1 272.185 209.693 271.136 209.688 270.042V263.668C209.7 262.581 210.111 261.543 210.832 260.778C211.553 260.014 212.525 259.585 213.539 259.585C214.552 259.585 215.525 260.014 216.246 260.778C216.966 261.543 217.377 262.581 217.39 263.668V270.042C217.385 271.136 216.978 272.185 216.256 272.958C215.535 273.732 214.558 274.169 213.539 274.174H213.539Z" fill="#090814"/>
<path d="M195.274 298.145V303.479C195.275 303.755 195.378 304.02 195.56 304.215C195.742 304.41 195.989 304.521 196.246 304.521H230.618C230.876 304.52 231.122 304.409 231.304 304.214C231.486 304.019 231.589 303.755 231.59 303.479V298.145H195.274Z" fill="#3F3D56"/>
<path d="M280.771 266.618C281.987 266.618 282.972 265.561 282.972 264.257C282.972 262.952 281.987 261.895 280.771 261.895C279.556 261.895 278.57 262.952 278.57 264.257C278.57 265.561 279.556 266.618 280.771 266.618Z" fill="#2F2E41"/>
<path d="M161.934 260.831C161.73 260.831 161.534 260.918 161.389 261.073C161.245 261.228 161.164 261.438 161.164 261.657V265.91C161.164 266.129 161.245 266.339 161.389 266.494C161.534 266.649 161.73 266.736 161.934 266.736C162.138 266.736 162.334 266.649 162.479 266.494C162.623 266.339 162.704 266.129 162.704 265.91V261.657C162.704 261.438 162.623 261.228 162.479 261.073C162.334 260.918 162.139 260.831 161.934 260.831H161.934Z" fill="#2F2E41"/>
<path d="M166.116 260.831C165.911 260.831 165.716 260.918 165.571 261.073C165.427 261.228 165.346 261.438 165.346 261.657V265.91C165.346 266.129 165.427 266.339 165.571 266.494C165.716 266.649 165.912 266.736 166.116 266.736C166.32 266.736 166.516 266.649 166.661 266.494C166.805 266.339 166.886 266.129 166.886 265.91V261.657C166.886 261.438 166.805 261.228 166.661 261.073C166.516 260.918 166.32 260.831 166.116 260.831Z" fill="#2F2E41"/>
<path d="M170.3 260.831C170.096 260.831 169.9 260.918 169.755 261.073C169.611 261.228 169.53 261.438 169.53 261.657V265.91C169.53 266.129 169.611 266.339 169.755 266.494C169.9 266.649 170.096 266.736 170.3 266.736C170.504 266.736 170.7 266.649 170.845 266.494C170.989 266.339 171.07 266.129 171.07 265.91V261.657C171.07 261.549 171.05 261.441 171.012 261.341C170.973 261.241 170.916 261.15 170.845 261.073C170.773 260.996 170.688 260.935 170.595 260.894C170.501 260.852 170.401 260.831 170.3 260.831Z" fill="#2F2E41"/>
<path d="M174.48 260.831C174.276 260.831 174.08 260.918 173.936 261.073C173.791 261.228 173.71 261.438 173.71 261.657V265.91C173.71 266.129 173.791 266.339 173.936 266.494C174.08 266.649 174.276 266.736 174.48 266.736C174.685 266.736 174.881 266.649 175.025 266.494C175.17 266.339 175.251 266.129 175.251 265.91V261.657C175.251 261.438 175.17 261.228 175.025 261.073C174.881 260.918 174.684 260.831 174.48 260.831Z" fill="#2F2E41"/>
<path d="M177.817 300.471C184.246 300.471 189.458 294.878 189.458 287.978C189.458 281.079 184.246 275.486 177.817 275.486C171.387 275.486 166.175 281.079 166.175 287.978C166.175 294.878 171.387 300.471 177.817 300.471Z" fill="#ED9DA0"/>
<path d="M259.148 302.873C265.578 302.873 270.79 297.28 270.79 290.381C270.79 283.482 265.578 277.889 259.148 277.889C252.719 277.889 247.506 283.482 247.506 290.381C247.506 297.28 252.719 302.873 259.148 302.873Z" fill="#ED9DA0"/>
<path d="M412.97 109.268C411.82 107.226 410.457 105.046 408.322 104.379C405.849 103.607 403.308 105.139 401.155 106.654C394.714 111.181 388.51 116.086 382.574 121.348L382.58 121.427C387.203 121.085 391.04 134.275 395.662 133.933C399.002 133.686 403.243 119.873 406.194 118.177C407.314 117.534 408.406 116.675 409.675 116.615C411.252 116.541 412.627 117.722 413.708 118.957C420.099 126.26 421.949 137.428 429.119 143.844C424.597 131.879 419.198 120.317 412.973 109.268L412.97 109.268Z" fill="#6C63FF"/>
<path d="M425.272 127.006C428.643 133.54 432.219 139.945 436 146.22V146.225C435.978 146.446 435.946 146.667 435.915 146.888C435.458 146.138 435.006 145.386 434.558 144.63C431.164 138.917 427.939 133.095 424.882 127.164C423.431 124.344 422.016 121.501 420.637 118.636C419.571 116.416 418.528 114.183 417.507 111.938C417.216 111.294 416.934 110.651 416.652 110.002C415.989 108.481 415.336 106.955 414.636 105.456C413.839 103.746 412.867 101.958 411.403 100.81C410.737 100.265 409.94 99.9352 409.105 99.8587C407.93 99.8663 406.779 100.22 405.778 100.882C398.204 105.154 391.134 110.386 384.72 116.464C378.299 122.519 372.559 129.358 367.617 136.842C367.465 137.073 367.107 136.852 367.259 136.616C367.864 135.704 368.473 134.804 369.1 133.911C376.869 122.825 386.395 113.291 397.242 105.745C399.065 104.477 400.923 103.268 402.817 102.12C403.77 101.539 404.729 100.967 405.705 100.429C406.639 99.8411 407.687 99.4925 408.767 99.4102C412.483 99.3476 414.409 103.864 415.73 106.901C416.142 107.857 416.561 108.813 416.988 109.766C418.596 113.37 420.266 116.945 421.999 120.491C423.066 122.674 424.157 124.845 425.272 127.006Z" fill="#3F3D56"/>
<path d="M384.356 114.233C384.138 113.975 383.926 113.717 383.708 113.458C381.995 111.425 380.156 109.416 377.803 108.25C376.682 107.676 375.457 107.372 374.214 107.357C372.932 107.394 371.668 107.69 370.488 108.229C369.927 108.469 369.378 108.742 368.838 109.033C368.22 109.366 367.614 109.721 367.01 110.08C365.877 110.753 364.759 111.455 363.655 112.186C361.459 113.642 359.332 115.21 357.273 116.889C356.206 117.759 355.161 118.658 354.137 119.586C353.186 120.448 352.254 121.333 351.34 122.241C351.145 122.434 350.854 122.124 351.049 121.928C351.29 121.688 351.533 121.448 351.776 121.212C352.464 120.545 353.163 119.891 353.872 119.25C355.166 118.078 356.493 116.952 357.854 115.871C359.971 114.188 362.16 112.62 364.422 111.166C365.552 110.44 366.698 109.745 367.86 109.08C368.211 108.879 368.565 108.683 368.924 108.495C369.738 108.054 370.584 107.685 371.454 107.39C372.686 106.962 373.989 106.825 375.275 106.987C376.517 107.181 377.713 107.625 378.801 108.296C381.112 109.682 382.903 111.824 384.647 113.915C384.824 114.132 384.534 114.446 384.356 114.233Z" fill="#3F3D56"/>
<path d="M367.451 124.017C366.864 124.048 366.283 123.869 365.801 123.51C364.522 122.47 364.556 119.974 365.903 115.878C366.27 114.768 366.845 113.75 367.592 112.888C368.34 112.026 369.244 111.338 370.249 110.865C371.191 110.413 372.211 110.176 373.243 110.17C374.275 110.163 375.297 110.387 376.243 110.827C376.409 110.905 376.572 110.988 376.734 111.075C377.83 111.733 378.857 112.515 379.798 113.408C380.598 114.152 381.451 114.829 382.35 115.43L382.65 115.619L382.366 115.834C375.108 121.311 370.191 124.017 367.451 124.017Z" fill="#6C63FF"/>
<path d="M395.343 91.4069C392.958 91.4068 390.647 90.5186 388.804 88.8938C386.962 87.269 385.702 85.0084 385.24 82.4978C383.245 82.9311 381.415 83.9886 379.98 85.5369C378.545 87.0853 377.57 89.055 377.178 91.1976C376.785 93.3401 376.993 95.5594 377.775 97.5754C378.556 99.5914 379.877 101.314 381.57 102.525C383.263 103.736 385.253 104.382 387.288 104.381C389.322 104.38 391.311 103.732 393.004 102.52C394.696 101.307 396.015 99.5833 396.795 97.5666C397.575 95.5499 397.781 93.3304 397.387 91.1882C396.714 91.3337 396.029 91.4069 395.343 91.4069Z" fill="#3F3D56"/>
<path opacity="0.74" d="M84.6255 92.2325C93.1132 92.2325 99.9938 84.8491 99.9938 75.7411C99.9938 66.6332 93.1132 59.2498 84.6255 59.2498C76.1377 59.2498 69.2571 66.6332 69.2571 75.7411C69.2571 84.8491 76.1377 92.2325 84.6255 92.2325Z" fill="#3F3D56"/>
<path opacity="0.74" d="M99.9939 92.2325C108.482 92.2325 115.362 84.8491 115.362 75.7411C115.362 66.6332 108.482 59.2498 99.9939 59.2498C91.5061 59.2498 84.6255 66.6332 84.6255 75.7411C84.6255 84.8491 91.5061 92.2325 99.9939 92.2325Z" fill="#FF6584"/>
<path opacity="0.74" d="M92.4399 79.0887C100.928 79.0887 107.808 71.7053 107.808 62.5974C107.808 53.4894 100.928 46.106 92.4399 46.106C83.9522 46.106 77.0715 53.4894 77.0715 62.5974C77.0715 71.7053 83.9522 79.0887 92.4399 79.0887Z" fill="#6C63FF"/>
<path d="M132.627 57.872L93.1514 71.1802L93.4197 72.0967L132.895 58.7886L132.627 57.872Z" fill="#3F3D56"/>
<path d="M343.292 12.7327H343.037C343.832 12.7333 344.615 12.9321 345.326 13.3133H344.165C342.913 13.3149 341.714 13.8489 340.829 14.7982C339.945 15.7475 339.447 17.0346 339.446 18.3771V31.7928C339.447 33.1353 339.945 34.4224 340.829 35.3718C341.714 36.3211 342.913 36.8551 344.165 36.8566H344.905C344.31 37.1069 343.677 37.2358 343.038 37.2367H343.293C344.663 37.235 345.976 36.6503 346.944 35.6109C347.913 34.5715 348.458 33.1622 348.46 31.6922V18.2772C348.458 16.8072 347.913 15.3979 346.944 14.3585C345.976 13.3191 344.662 12.7344 343.292 12.7327Z" fill="#FF6584"/>
<path opacity="0.21" d="M343.292 12.7327H343.037C343.832 12.7333 344.615 12.9321 345.326 13.3133H344.165C342.913 13.3149 341.714 13.8489 340.829 14.7982C339.945 15.7475 339.447 17.0346 339.446 18.3771V31.7928C339.447 33.1353 339.945 34.4224 340.829 35.3718C341.714 36.3211 342.913 36.8551 344.165 36.8566H344.905C344.31 37.1069 343.677 37.2358 343.038 37.2367H343.293C344.663 37.235 345.976 36.6503 346.944 35.6109C347.913 34.5715 348.458 33.1622 348.46 31.6922V18.2772C348.458 16.8072 347.913 15.3979 346.944 14.3585C345.976 13.3191 344.662 12.7344 343.292 12.7327Z" fill="black"/>
<path d="M344.214 36.8987C342.962 36.8972 341.763 36.3632 340.878 35.4138C339.994 34.4645 339.496 33.1774 339.495 31.8349V18.4192C339.496 17.0767 339.994 15.7896 340.878 14.8403C341.763 13.8909 342.962 13.3569 344.214 13.3554H345.375C344.664 12.9742 343.881 12.7754 343.086 12.7747H330.585C329.215 12.7765 327.902 13.3611 326.933 14.4006C325.965 15.44 325.42 16.8493 325.418 18.3192V31.7349C325.42 33.2049 325.965 34.6141 326.933 35.6536C327.902 36.693 329.215 37.2777 330.585 37.2794H343.087C343.726 37.2785 344.359 37.1496 344.954 36.8993L344.214 36.8987Z" fill="#6C63FF"/>
<path d="M344.214 36.8987C342.962 36.8972 341.763 36.3632 340.878 35.4138C339.994 34.4645 339.496 33.1774 339.495 31.8349V18.4192C339.496 17.0767 339.994 15.7896 340.878 14.8403C341.763 13.8909 342.962 13.3569 344.214 13.3554H345.375C344.664 12.9742 343.881 12.7754 343.086 12.7747H330.585C329.215 12.7765 327.902 13.3611 326.933 14.4006C325.965 15.44 325.42 16.8493 325.418 18.3192V31.7349C325.42 33.2049 325.965 34.6141 326.933 35.6536C327.902 36.693 329.215 37.2777 330.585 37.2794H343.087C343.726 37.2785 344.359 37.1496 344.954 36.8993L344.214 36.8987Z" fill="#FF6584"/>
<path d="M132.878 60.0988C133.868 60.0988 134.669 59.2382 134.669 58.1767C134.669 57.1152 133.868 56.2547 132.878 56.2547C131.889 56.2547 131.087 57.1152 131.087 58.1767C131.087 59.2382 131.889 60.0988 132.878 60.0988Z" fill="#3F3D56"/>
<path d="M424.188 152.159C426.812 154.143 429.333 156.166 432.216 157.694C432.162 157.928 432.105 158.169 432.053 158.405C431.699 158.23 431.354 158.04 431.009 157.848C428.085 156.205 425.569 153.97 422.824 152.029C421.464 151.02 419.978 150.221 418.41 149.656C416.776 149.128 415.068 148.914 413.364 149.021C406.257 149.396 400.168 153.946 393.564 156.238C390.331 157.362 386.892 157.963 383.52 157.257C380.149 156.55 377.153 154.628 374.175 152.889C371.238 151.169 368.036 149.439 364.607 149.439C361.813 149.444 358.875 150.645 357.38 153.298C357.335 153.381 357.261 153.44 357.175 153.464C357.089 153.488 356.998 153.474 356.921 153.426C356.844 153.378 356.789 153.299 356.767 153.206C356.744 153.114 356.757 153.016 356.802 152.934C357.137 152.33 357.548 151.778 358.024 151.296C359.977 149.312 362.847 148.529 365.484 148.759C368.896 149.057 372.008 150.787 374.959 152.526C378.089 154.371 381.295 156.356 384.913 156.759C388.486 157.162 392.024 156.158 395.337 154.808C401.753 152.19 408.085 147.827 415.222 148.312C418.586 148.541 421.47 150.107 424.188 152.159Z" fill="#3F3D56"/>
<path d="M184.757 7.76937V8.74472C184.456 8.68096 184.151 8.64884 183.844 8.64882H179.158V19.4407C179.156 21.0376 178.564 22.5686 177.512 23.6978C176.46 24.827 175.033 25.462 173.545 25.4636H166.622V27.126C166.622 27.7925 166.746 28.4523 166.985 29.0673H166.027C165.827 28.4427 165.725 27.7865 165.727 27.126V25.4636H161.921V24.5028H165.727V13.7132C165.728 12.1164 166.32 10.5853 167.372 9.45619C168.425 8.32703 169.851 7.69198 171.34 7.69043H178.26V6.00638H179.155V7.68809H183.842C184.148 7.68851 184.453 7.7159 184.755 7.76996L184.757 7.76937Z" fill="#6C63FF"/>
<path d="M173.545 -0.000579834H161.044C159.555 0.000968273 158.129 0.636003 157.076 1.76516C156.024 2.89432 155.432 4.42534 155.431 6.02222V19.4373C155.432 21.0342 156.024 22.5652 157.076 23.6943C158.129 24.8235 159.555 25.4585 161.044 25.4601H173.545C175.033 25.4585 176.46 24.8235 177.512 23.6943C178.565 22.5652 179.156 21.0342 179.158 19.4373V6.00585C179.152 4.41177 178.559 2.88486 177.507 1.7592C176.455 0.633546 175.031 0.000801579 173.545 -0.000579834ZM178.265 19.4396C178.263 20.7823 177.765 22.0694 176.881 23.0188C175.996 23.9682 174.796 24.5023 173.545 24.504H161.044C159.792 24.5023 158.593 23.9682 157.708 23.0188C156.823 22.0694 156.326 20.7823 156.324 19.4396V6.02514C156.326 4.68255 156.824 3.39546 157.708 2.4461C158.593 1.49674 159.792 0.962576 161.044 0.960719H173.545C174.793 0.962247 175.99 1.49367 176.874 2.43893C177.759 3.38419 178.259 4.66651 178.265 6.00585V19.4396Z" fill="#3F3D56"/>
<path d="M165.728 24.5046V25.4653H166.623V24.5046H165.728ZM165.728 24.5046V25.4653H166.623V24.5046H165.728ZM184.758 7.76938C184.456 7.71533 184.151 7.68796 183.845 7.68753H171.342C169.854 7.68908 168.428 8.32411 167.375 9.45327C166.323 10.5824 165.731 12.1135 165.73 13.7103V27.1254C165.728 27.786 165.83 28.4421 166.03 29.0667C166.408 30.2576 167.124 31.2917 168.077 32.0242C169.03 32.7566 170.173 33.1507 171.345 33.1511H183.846C185.334 33.1496 186.761 32.5145 187.813 31.3854C188.866 30.2562 189.457 28.7252 189.459 27.1283V13.7133C189.459 12.2852 188.986 10.9036 188.125 9.81486C187.264 8.72615 186.07 8.0012 184.757 7.76938H184.758ZM188.564 27.1283C188.562 28.471 188.065 29.7581 187.18 30.7075C186.295 31.6569 185.096 32.191 183.845 32.1927H171.342C170.091 32.1909 168.892 31.6567 168.007 30.7073C167.122 29.758 166.625 28.4709 166.623 27.1283V13.7133C166.624 12.3706 167.122 11.0834 168.007 10.1341C168.892 9.18466 170.091 8.65053 171.342 8.64883H183.846C185.098 8.64929 186.298 9.18302 187.183 10.1327C188.068 11.0823 188.565 12.3702 188.566 13.7133L188.564 27.1283ZM165.728 24.5046V25.4653H166.623V24.5046H165.728Z" fill="#3F3D56"/>
<path d="M69.4665 124.007H25.655C25.35 124.007 25.0575 124.137 24.8415 124.368C24.6255 124.599 24.5036 124.912 24.5024 125.239V128.026C25.9478 133.966 27.6977 139.817 29.744 145.55H69.4649C69.6158 145.55 69.7652 145.518 69.9046 145.457C70.0441 145.395 70.1708 145.304 70.2775 145.189C70.3842 145.075 70.4688 144.939 70.5264 144.789C70.5841 144.64 70.6137 144.479 70.6136 144.317V125.24C70.6136 124.914 70.4928 124.6 70.2778 124.369C70.0628 124.138 69.771 124.007 69.4665 124.007Z" fill="#6C63FF"/>
<path d="M65.2923 151.739H32.0837C32.4788 152.733 32.8815 153.721 33.2989 154.704H65.2917C67.0949 154.732 67.0763 151.712 65.2923 151.739Z" fill="#E4E4E4"/>
<path d="M65.2923 158.532H34.9653C35.4085 159.527 35.8641 160.516 36.332 161.498H65.2923C67.0949 161.525 67.0764 158.508 65.2923 158.532Z" fill="#E4E4E4"/>
<path d="M65.2923 165.331H38.1973C38.6921 166.325 39.2021 167.312 39.7192 168.295H65.2923C67.0949 168.323 67.0764 165.303 65.2923 165.331Z" fill="#E4E4E4"/>
<path d="M310.157 12.7327H309.902C310.697 12.7333 311.48 12.9321 312.191 13.3133H311.028C309.777 13.3147 308.578 13.8486 307.693 14.798C306.808 15.7473 306.31 17.0345 306.309 18.3771V31.7928C306.31 33.1353 306.808 34.4224 307.693 35.3718C308.577 36.3211 309.777 36.8551 311.028 36.8566H311.769C311.175 37.1069 310.542 37.2358 309.903 37.2367H310.158C311.527 37.235 312.841 36.6503 313.809 35.6109C314.778 34.5715 315.323 33.1622 315.325 31.6922V18.2772C315.323 16.8072 314.778 15.3979 313.809 14.3585C312.841 13.3191 311.527 12.7344 310.157 12.7327Z" fill="#3F3D56"/>
<path opacity="0.21" d="M310.157 12.7327H309.902C310.697 12.7333 311.48 12.9321 312.191 13.3133H311.028C309.777 13.3147 308.578 13.8486 307.693 14.798C306.808 15.7473 306.31 17.0345 306.309 18.3771V31.7928C306.31 33.1353 306.808 34.4224 307.693 35.3718C308.577 36.3211 309.777 36.8551 311.028 36.8566H311.769C311.175 37.1069 310.542 37.2358 309.903 37.2367H310.158C311.527 37.235 312.841 36.6503 313.809 35.6109C314.778 34.5715 315.323 33.1622 315.325 31.6922V18.2772C315.323 16.8072 314.778 15.3979 313.809 14.3585C312.841 13.3191 311.527 12.7344 310.157 12.7327Z" fill="black"/>
<path d="M277.023 12.7327H276.768C277.562 12.7333 278.346 12.9321 279.057 13.3133H277.895C276.644 13.3149 275.445 13.8489 274.56 14.7982C273.675 15.7475 273.178 17.0346 273.176 18.3771V31.7928C273.178 33.1353 273.675 34.4224 274.56 35.3718C275.445 36.3211 276.644 36.8551 277.895 36.8566H278.635C278.04 37.1069 277.407 37.2358 276.768 37.2367H277.023C278.393 37.235 279.707 36.6503 280.675 35.6109C281.644 34.5715 282.189 33.1622 282.19 31.6922V18.2772C282.189 16.8072 281.644 15.3979 280.675 14.3585C279.707 13.3191 278.393 12.7344 277.023 12.7327Z" fill="#6C63FF"/>
<path opacity="0.21" d="M277.023 12.7327H276.768C277.562 12.7333 278.346 12.9321 279.057 13.3133H277.895C276.644 13.3149 275.445 13.8489 274.56 14.7982C273.675 15.7475 273.178 17.0346 273.176 18.3771V31.7928C273.178 33.1353 273.675 34.4224 274.56 35.3718C275.445 36.3211 276.644 36.8551 277.895 36.8566H278.635C278.04 37.1069 277.407 37.2358 276.768 37.2367H277.023C278.393 37.235 279.707 36.6503 280.675 35.6109C281.644 34.5715 282.189 33.1622 282.19 31.6922V18.2772C282.189 16.8072 281.644 15.3979 280.675 14.3585C279.707 13.3191 278.393 12.7344 277.023 12.7327Z" fill="black"/>
<path d="M277.944 36.8987C276.693 36.8972 275.494 36.3632 274.609 35.4138C273.724 34.4645 273.227 33.1774 273.225 31.8349V18.4192C273.227 17.0767 273.724 15.7896 274.609 14.8403C275.494 13.8909 276.693 13.3569 277.944 13.3554H279.106C278.395 12.9742 277.611 12.7754 276.817 12.7747H264.316C262.946 12.7765 261.633 13.3611 260.664 14.4006C259.695 15.44 259.151 16.8493 259.149 18.3192V31.7349C259.151 33.2049 259.695 34.6141 260.664 35.6536C261.633 36.693 262.946 37.2777 264.316 37.2794H276.818C277.457 37.2785 278.09 37.1496 278.685 36.8993L277.944 36.8987Z" fill="#6C63FF"/>
<path d="M311.079 36.8987C309.827 36.8973 308.628 36.3634 307.743 35.414C306.858 34.4647 306.36 33.1775 306.359 31.8349V18.4192C306.36 17.0766 306.858 15.7894 307.743 14.8401C308.628 13.8907 309.827 13.3568 311.079 13.3554H312.24C311.529 12.9742 310.746 12.7754 309.951 12.7747H297.45C296.08 12.7765 294.767 13.3611 293.798 14.4006C292.83 15.44 292.285 16.8493 292.283 18.3192V31.7349C292.285 33.2049 292.83 34.6141 293.798 35.6536C294.767 36.693 296.08 37.2777 297.45 37.2794H309.952C310.591 37.2785 311.224 37.1496 311.819 36.8993L311.079 36.8987Z" fill="#3F3D56"/>
<path d="M310.147 44.3178L305.768 37.2788L302.567 32.1331C302.38 31.8326 302.118 31.595 301.81 31.4479C301.503 31.3008 301.163 31.2502 300.83 31.302C300.496 31.3537 300.184 31.5058 299.928 31.7404C299.672 31.9751 299.483 32.2827 299.383 32.6278L298.035 37.2788L295.322 46.6241C295.214 46.9964 295.215 47.3949 295.325 47.7666C295.434 48.1382 295.647 48.4652 295.934 48.7038C296.221 48.9424 296.569 49.0814 296.932 49.1021C297.294 49.1228 297.654 49.0243 297.963 48.8197L298.926 48.1806C299.12 48.0524 299.341 47.9793 299.569 47.9684C299.796 47.9575 300.022 48.0091 300.226 48.1183C300.429 48.2275 300.604 48.3908 300.732 48.5925C300.86 48.7943 300.939 49.0279 300.959 49.2712L301.842 59.6017C301.883 60.0763 302.087 60.5173 302.415 60.8389C302.743 61.1605 303.171 61.3396 303.615 61.3413C303.669 61.3413 303.724 61.3367 303.778 61.332L305.131 61.2022C305.364 61.1794 305.591 61.1075 305.798 60.9906C306.005 60.8736 306.189 60.714 306.339 60.5207C306.489 60.3275 306.601 60.1044 306.671 59.8644C306.74 59.6243 306.764 59.3719 306.743 59.1217L305.834 48.4549C305.812 48.2043 305.852 47.952 305.951 47.7234C306.049 47.4949 306.201 47.2981 306.393 47.1529C306.585 47.0077 306.808 46.9193 307.042 46.8964C307.276 46.8736 307.511 46.9172 307.723 47.0228L307.921 47.1187C308.274 47.2931 308.67 47.339 309.049 47.2494C309.428 47.1598 309.77 46.9396 310.022 46.6224C310.274 46.3052 310.423 45.9083 310.445 45.4922C310.467 45.0761 310.362 44.6635 310.146 44.3173L310.147 44.3178Z" fill="#CCCCCC"/>
<path d="M277.944 36.8987C276.693 36.8972 275.494 36.3632 274.609 35.4138C273.724 34.4645 273.227 33.1774 273.225 31.8349V18.4192C273.227 17.0767 273.724 15.7896 274.609 14.8403C275.494 13.8909 276.693 13.3569 277.944 13.3554H279.106C278.395 12.9742 277.611 12.7754 276.817 12.7747H264.316C262.946 12.7765 261.633 13.3611 260.664 14.4006C259.695 15.44 259.151 16.8493 259.149 18.3192V31.7349C259.151 33.2049 259.695 34.6141 260.664 35.6536C261.633 36.693 262.946 37.2777 264.316 37.2794H276.818C277.457 37.2785 278.09 37.1496 278.685 36.8993L277.944 36.8987Z" fill="#6C63FF"/>
</g>
<defs>
<clipPath id="clip0_27_145">
<rect width="436" height="312" fill="white"/>
</clipPath>
</defs>
</svg>
