<svg width="417" height="74" viewBox="0 0 417 74" fill="none" xmlns="http://www.w3.org/2000/svg">
<path d="M42.624 21.648C42.624 24.848 41.632 27.632 39.648 30C37.664 32.336 34.832 34.512 31.152 36.528C35.472 38.32 38.912 40.704 41.472 43.68C44.032 46.656 45.312 50.192 45.312 54.288C45.312 57.872 44.384 61.088 42.528 63.936C40.672 66.784 38.048 69.024 34.656 70.656C31.296 72.288 27.28 73.104 22.608 73.104C17.904 73.104 13.872 72.288 10.512 70.656C7.184 68.992 4.64 66.752 2.88 63.936C1.152 61.12 0.288001 57.952 0.288001 54.432C0.288001 50.368 1.488 46.944 3.888 44.16C6.32 41.344 9.536 39.024 13.536 37.2C10.048 35.536 7.408 33.52 5.616 31.152C3.856 28.784 2.976 25.76 2.976 22.08C2.976 19.04 3.584 16.448 4.8 14.304C6.048 12.128 7.648 10.336 9.6 8.928C11.584 7.52 13.728 6.496 16.032 5.856C18.368 5.184 20.624 4.848 22.8 4.848C25.2 4.848 27.568 5.184 29.904 5.856C32.272 6.496 34.416 7.504 36.336 8.88C38.256 10.224 39.776 11.952 40.896 14.064C42.048 16.176 42.624 18.704 42.624 21.648ZM36.816 54.384C36.816 51.408 36.064 49.056 34.56 47.328C33.056 45.6 30.976 44.16 28.32 43.008C25.664 41.856 22.592 40.688 19.104 39.504C17.28 40.336 15.584 41.392 14.016 42.672C12.448 43.952 11.184 45.552 10.224 47.472C9.264 49.36 8.784 51.696 8.784 54.48C8.784 58.224 9.936 61.184 12.24 63.36C14.576 65.504 18.016 66.576 22.56 66.576C27.168 66.576 30.688 65.424 33.12 63.12C35.584 60.784 36.816 57.872 36.816 54.384ZM10.944 22.176C10.944 24.704 11.52 26.688 12.672 28.128C13.856 29.568 15.536 30.752 17.712 31.68C19.888 32.576 22.464 33.52 25.44 34.512C28.512 32.752 30.816 30.976 32.352 29.184C33.888 27.36 34.656 24.944 34.656 21.936C34.656 18.608 33.616 15.968 31.536 14.016C29.488 12.064 26.576 11.088 22.8 11.088C19.056 11.088 16.144 12.064 14.064 14.016C11.984 15.968 10.944 18.688 10.944 22.176ZM80.3625 4.848C87.4985 4.848 92.8905 7.792 96.5385 13.68C100.187 19.568 102.01 27.984 102.01 38.928C102.01 49.904 100.187 58.352 96.5385 64.272C92.8905 70.16 87.4985 73.104 80.3625 73.104C73.2585 73.104 67.8665 70.16 64.1865 64.272C60.5385 58.352 58.7145 49.904 58.7145 38.928C58.7145 27.984 60.5385 19.568 64.1865 13.68C67.8665 7.792 73.2585 4.848 80.3625 4.848ZM80.3625 11.328C76.2985 11.328 73.0985 13.488 70.7625 17.808C68.4265 22.096 67.2585 29.136 67.2585 38.928C67.2585 43.888 67.5145 48.128 68.0265 51.648C68.5385 55.168 69.3225 58.032 70.3785 60.24C71.4665 62.416 72.8265 64.016 74.4585 65.04C76.1225 66.064 78.0905 66.576 80.3625 66.576C83.1145 66.576 85.4665 65.632 87.4185 63.744C89.4025 61.856 90.9065 58.88 91.9305 54.816C92.9865 50.72 93.5145 45.424 93.5145 38.928C93.5145 32.336 93.0505 27.008 92.1225 22.944C91.2265 18.88 89.8025 15.936 87.8505 14.112C85.9305 12.256 83.4345 11.328 80.3625 11.328ZM90.1065 13.68L92.2185 20.736L71.1945 63.312L68.2185 57.696L90.1065 13.68ZM157.749 21.648C157.749 24.848 156.757 27.632 154.773 30C152.789 32.336 149.957 34.512 146.277 36.528C150.597 38.32 154.037 40.704 156.597 43.68C159.157 46.656 160.437 50.192 160.437 54.288C160.437 57.872 159.509 61.088 157.653 63.936C155.797 66.784 153.173 69.024 149.781 70.656C146.421 72.288 142.405 73.104 137.733 73.104C133.029 73.104 128.997 72.288 125.637 70.656C122.309 68.992 119.765 66.752 118.005 63.936C116.277 61.12 115.413 57.952 115.413 54.432C115.413 50.368 116.613 46.944 119.013 44.16C121.445 41.344 124.661 39.024 128.661 37.2C125.173 35.536 122.533 33.52 120.741 31.152C118.981 28.784 118.101 25.76 118.101 22.08C118.101 19.04 118.709 16.448 119.925 14.304C121.173 12.128 122.773 10.336 124.725 8.928C126.709 7.52 128.853 6.496 131.157 5.856C133.493 5.184 135.749 4.848 137.925 4.848C140.325 4.848 142.693 5.184 145.029 5.856C147.397 6.496 149.541 7.504 151.461 8.88C153.381 10.224 154.901 11.952 156.021 14.064C157.173 16.176 157.749 18.704 157.749 21.648ZM151.941 54.384C151.941 51.408 151.189 49.056 149.685 47.328C148.181 45.6 146.101 44.16 143.445 43.008C140.789 41.856 137.717 40.688 134.229 39.504C132.405 40.336 130.709 41.392 129.141 42.672C127.573 43.952 126.309 45.552 125.349 47.472C124.389 49.36 123.909 51.696 123.909 54.48C123.909 58.224 125.061 61.184 127.365 63.36C129.701 65.504 133.141 66.576 137.685 66.576C142.293 66.576 145.813 65.424 148.245 63.12C150.709 60.784 151.941 57.872 151.941 54.384ZM126.069 22.176C126.069 24.704 126.645 26.688 127.797 28.128C128.981 29.568 130.661 30.752 132.837 31.68C135.013 32.576 137.589 33.52 140.565 34.512C143.637 32.752 145.941 30.976 147.477 29.184C149.013 27.36 149.781 24.944 149.781 21.936C149.781 18.608 148.741 15.968 146.661 14.016C144.613 12.064 141.701 11.088 137.925 11.088C134.181 11.088 131.269 12.064 129.189 14.016C127.109 15.968 126.069 18.688 126.069 22.176Z" fill="#FF6B35"/>
<path d="M201.056 4.848C205.376 4.848 208.992 5.392 211.904 6.48C214.816 7.568 217.583 9.168 220.208 11.28L215.552 16.704C213.472 14.944 211.264 13.696 208.928 12.96C206.624 12.192 204.208 11.808 201.68 11.808C198.064 11.808 194.72 12.672 191.648 14.4C188.576 16.096 186.096 18.928 184.208 22.896C182.352 26.832 181.424 32.176 181.424 38.928C181.424 45.488 182.304 50.752 184.064 54.72C185.856 58.688 188.272 61.552 191.312 63.312C194.352 65.072 197.744 65.952 201.488 65.952C205.2 65.952 208.24 65.392 210.608 64.272C213.008 63.152 215.088 61.872 216.848 60.432L221.168 65.904C219.152 67.856 216.528 69.552 213.296 70.992C210.064 72.4 206.096 73.104 201.392 73.104C196.048 73.104 191.2 71.792 186.848 69.168C182.528 66.544 179.104 62.704 176.576 57.648C174.048 52.56 172.784 46.32 172.784 38.928C172.784 31.504 174.064 25.264 176.624 20.208C179.216 15.152 182.656 11.328 186.944 8.736C191.264 6.144 195.968 4.848 201.056 4.848ZM253.146 20.4C257.914 20.4 261.898 21.488 265.098 23.664C268.33 25.808 270.746 28.848 272.346 32.784C273.978 36.72 274.794 41.36 274.794 46.704C274.794 51.856 273.962 56.416 272.298 60.384C270.634 64.352 268.186 67.472 264.954 69.744C261.754 71.984 257.786 73.104 253.05 73.104C248.314 73.104 244.33 72.016 241.098 69.84C237.866 67.664 235.418 64.608 233.754 60.672C232.122 56.704 231.306 52.08 231.306 46.8C231.306 41.584 232.138 36.992 233.802 33.024C235.466 29.056 237.914 25.968 241.146 23.76C244.41 21.52 248.41 20.4 253.146 20.4ZM253.146 26.976C248.794 26.976 245.498 28.592 243.258 31.824C241.05 35.024 239.946 40.016 239.946 46.8C239.946 53.456 241.034 58.4 243.21 61.632C245.418 64.864 248.698 66.48 253.05 66.48C257.402 66.48 260.666 64.864 262.842 61.632C265.05 58.4 266.154 53.424 266.154 46.704C266.154 39.984 265.066 35.024 262.89 31.824C260.714 28.592 257.466 26.976 253.146 26.976ZM321.701 0.0959988L329.765 1.10399V72H322.709L321.941 65.328C320.053 68.016 317.877 69.984 315.413 71.232C312.981 72.48 310.373 73.104 307.589 73.104C303.205 73.104 299.589 72 296.741 69.792C293.893 67.584 291.781 64.512 290.405 60.576C289.029 56.608 288.341 52.016 288.341 46.8C288.341 41.744 289.125 37.232 290.693 33.264C292.261 29.264 294.517 26.128 297.461 23.856C300.437 21.552 304.005 20.4 308.165 20.4C311.077 20.4 313.637 20.912 315.845 21.936C318.053 22.928 320.005 24.4 321.701 26.352V0.0959988ZM310.277 26.88C306.053 26.88 302.805 28.528 300.533 31.824C298.261 35.12 297.125 40.112 297.125 46.8C297.125 51.152 297.589 54.8 298.517 57.744C299.445 60.688 300.805 62.896 302.597 64.368C304.421 65.84 306.645 66.576 309.269 66.576C312.149 66.576 314.597 65.76 316.613 64.128C318.661 62.496 320.357 60.656 321.701 58.608V33.36C320.325 31.312 318.661 29.728 316.709 28.608C314.757 27.456 312.613 26.88 310.277 26.88ZM355.359 49.584C355.519 53.488 356.271 56.688 357.615 59.184C358.959 61.648 360.735 63.472 362.943 64.656C365.151 65.808 367.551 66.384 370.143 66.384C372.735 66.384 375.071 66 377.151 65.232C379.263 64.464 381.423 63.328 383.631 61.824L387.423 67.152C385.055 69.008 382.351 70.464 379.311 71.52C376.303 72.576 373.215 73.104 370.047 73.104C365.151 73.104 360.975 72 357.519 69.792C354.063 67.584 351.423 64.512 349.599 60.576C347.807 56.608 346.911 52.016 346.911 46.8C346.911 41.68 347.823 37.136 349.647 33.168C351.471 29.2 354.031 26.08 357.327 23.808C360.623 21.536 364.511 20.4 368.991 20.4C373.247 20.4 376.911 21.408 379.983 23.424C383.055 25.408 385.407 28.256 387.039 31.968C388.703 35.648 389.535 40.048 389.535 45.168C389.535 46.032 389.519 46.848 389.487 47.616C389.455 48.352 389.407 49.008 389.343 49.584H355.359ZM369.087 27.024C365.343 27.024 362.207 28.352 359.679 31.008C357.183 33.664 355.759 37.776 355.407 43.344H381.759C381.663 37.936 380.479 33.872 378.207 31.152C375.935 28.4 372.895 27.024 369.087 27.024Z" fill="#6C63FF"/>
<path d="M410.165 72.5455C408.483 72.5455 407.04 71.9432 405.835 70.7386C404.631 69.5341 404.028 68.0909 404.028 66.4091C404.028 64.7273 404.631 63.2841 405.835 62.0795C407.04 60.875 408.483 60.2727 410.165 60.2727C411.847 60.2727 413.29 60.875 414.494 62.0795C415.699 63.2841 416.301 64.7273 416.301 66.4091C416.301 67.5227 416.017 68.5455 415.449 69.4773C414.903 70.4091 414.165 71.1591 413.233 71.7273C412.324 72.2727 411.301 72.5455 410.165 72.5455Z" fill="black"/>
</svg>
