<svg width="436" height="312" viewBox="0 0 436 312" fill="none" xmlns="http://www.w3.org/2000/svg">
<g clip-path="url(#clip0_27_533)">
<g clip-path="url(#clip1_27_533)">
<path d="M433.312 19.3832H155.359C154.749 19.3703 154.265 18.8852 154.278 18.2997C154.291 17.7325 154.768 17.2756 155.359 17.2631H433.312C433.922 17.276 434.406 17.7611 434.392 18.3466C434.379 18.9138 433.903 19.3707 433.312 19.3832Z" fill="#E6E6E6"/>
<path d="M204.309 128.32H316.449C316.734 128.32 316.966 128.541 316.966 128.815V191.35C316.966 191.624 316.734 191.845 316.449 191.845H204.309V128.32Z" fill="#E6E6E6"/>
<path d="M316.318 192.183L204.162 128.799L204.457 127.84L316.613 191.224C316.889 191.302 317.047 191.58 316.966 191.845C316.884 192.11 316.594 192.261 316.318 192.183Z" fill="white"/>
<path d="M204.457 192.325L204.162 191.366L316.318 127.982C316.594 127.903 316.884 128.055 316.966 128.32C317.047 128.585 316.889 128.863 316.613 128.941L204.457 192.325Z" fill="white"/>
<path d="M303.713 65.7613H217.435C216.087 65.7613 214.994 66.8097 214.994 68.103V68.1031C214.994 69.3964 216.087 70.4448 217.435 70.4448H303.713C305.062 70.4448 306.155 69.3964 306.155 68.103C306.155 66.8097 305.062 65.7613 303.713 65.7613Z" fill="#E6E6E6"/>
<path d="M315.312 80.3805H205.837C204.488 80.3805 203.395 81.429 203.395 82.7223V82.7223C203.395 84.0156 204.488 85.0641 205.837 85.0641H315.312C316.66 85.0641 317.753 84.0156 317.753 82.7223C317.753 81.429 316.66 80.3805 315.312 80.3805Z" fill="#E6E6E6"/>
<path d="M315.312 94.9998H205.837C204.488 94.9998 203.395 96.0483 203.395 97.3416C203.395 98.6349 204.488 99.6834 205.837 99.6834H315.312C316.66 99.6834 317.753 98.6349 317.753 97.3416C317.753 96.0483 316.66 94.9998 315.312 94.9998Z" fill="#6C63FF"/>
<path d="M419.123 144.352C419.115 162.43 407.202 178.532 389.412 184.512C389.035 184.642 388.657 184.76 388.275 184.874C364.942 192.028 339.98 179.687 332.52 157.309C325.061 134.931 337.929 110.991 361.262 103.837C384.595 96.683 409.558 109.024 417.017 131.402C418.412 135.588 419.123 139.957 419.123 144.352Z" fill="#E6E6E6"/>
<path d="M315.292 100.623C315.113 102.595 316.635 104.332 318.691 104.503C318.91 104.521 319.131 104.521 319.35 104.502L324.812 116.109L328.5 110.516L322.748 100.351C322.425 98.3854 320.502 97.0427 318.452 97.3521C316.737 97.611 315.431 98.9632 315.292 100.623Z" fill="#FFB6B6"/>
<path d="M369.118 144.336C369.039 143.993 368.937 143.655 368.814 143.324C368.031 141.19 366.437 139.419 364.35 138.365C364.301 138.338 364.248 138.31 364.198 138.286L339.247 126.144L337.034 122.005L328.089 105.294L325.897 105.921L320.714 107.397L320.595 107.429L329.186 135.155L331.157 136.605L353.484 152.981L354.211 153.516C357.92 156.232 363.142 155.937 366.494 152.823C366.828 152.516 367.137 152.184 367.418 151.831C369.12 149.7 369.744 146.952 369.118 144.336Z" fill="#6C63FF"/>
<path d="M382.99 174.788L382.858 170.219L382.481 156.97C383.848 148.491 384.817 147.55 378.222 141.752C377.713 141.647 377.273 141.341 377.011 140.909C376.411 139.736 377.853 137.743 376.608 134.675L366.79 135.214L364.35 138.365L354.536 151.047C354.151 151.674 353.8 152.319 353.484 152.981C349.283 161.732 354.979 166.383 355.423 167.183L358.141 175.394L359.64 183.358L360.125 184.464L361.492 184.945C370.216 187.558 379.567 187.533 388.275 184.874C386.809 181.376 385.042 178.003 382.99 174.788Z" fill="#6C63FF"/>
<path d="M402.007 206.995C402.847 205.187 402 203.068 400.115 202.263C399.914 202.177 399.706 202.108 399.492 202.058L398.281 189.376L392.891 193.508L394.867 204.917C394.503 206.876 395.864 208.747 397.906 209.097C399.615 209.389 401.311 208.52 402.007 206.995Z" fill="#FFB6B6"/>
<path d="M383.228 144.812C381.804 142.746 379.555 141.334 377.011 140.909C376.466 140.815 375.914 140.767 375.36 140.768C373.515 140.768 371.711 141.29 370.173 142.268C369.686 142.577 369.23 142.93 368.814 143.324C365.082 146.79 364.987 152.502 368.601 156.081L368.605 156.084L382.859 170.219L388.053 175.371L389.413 184.512L391.503 198.576L393.786 198.67L399.19 198.899L399.314 198.903L400.213 179.195L400.632 170.006L383.228 144.812Z" fill="#6C63FF"/>
<path d="M363.75 113.057C360.278 119.619 362.546 127.219 368.988 131.216C375.953 135.539 384.997 134.592 387.923 126.193C391.18 116.839 388.504 112.827 382.685 108.033C375.865 102.415 367.5 105.967 363.75 113.057Z" fill="#2F2E41"/>
<path d="M380.838 127.675C377.156 132.303 370.259 133.193 365.433 129.662C360.613 126.135 359.681 119.532 363.349 114.903L363.444 114.783C367.233 110.235 374.149 109.493 378.892 113.127C383.526 116.678 384.386 123.116 380.835 127.673L380.838 127.675Z" fill="#FFB6B6"/>
<path d="M360.385 111.994C362.172 113.624 364.349 114.807 366.725 115.439C367.201 114.911 367.766 114.462 368.396 114.111C368.094 114.713 367.887 115.354 367.782 116.014C368.842 118.123 373.17 119.639 377.307 121.19L382.786 111.916L375.534 107.975C369.707 104.112 362.847 105.761 360.385 111.994Z" fill="#2F2E41"/>
<path d="M386.919 108.045C387.993 107.665 389.195 107.833 390.112 108.492C390.995 109.136 391.709 109.968 392.196 110.924C393.083 112.469 393.721 114.135 394.086 115.864C394.399 117.36 394.346 119.168 392.947 119.948C391.779 120.6 390.11 120.19 389.037 119.32C388.042 118.408 387.288 117.283 386.835 116.037C386.312 114.844 385.817 113.607 384.886 112.616L385.853 113.049C385.547 112.159 385.405 111.225 385.432 110.289C385.477 109.341 386.043 108.487 386.919 108.045Z" fill="#2F2E41"/>
<path d="M374.375 109.26L382.156 113.488C386.537 115.869 388.076 121.205 385.593 125.406C381.995 131.495 374.159 133.962 367.498 131.102L374.608 125.082L364.963 129.795L362.904 128.676C373.247 126.873 375.243 119.091 374.375 109.26Z" fill="#2F2E41"/>
<path d="M389.073 116.691C390.382 118.153 392.432 118.721 394.282 119.482C400.908 122.27 405.672 128.016 407.012 134.835C407.523 137.572 407.457 140.404 408.264 143.071C409.067 145.739 411.055 148.356 413.908 148.818C415.838 149.135 417.774 148.42 419.59 147.714C420.589 147.329 421.587 146.942 422.586 146.554C421.544 144.047 420.504 141.541 419.466 139.034C421.135 141.399 423.076 143.578 425.253 145.528C428.832 144.144 432.414 142.76 436 141.376C427.178 141.408 428.684 133.195 426.71 124.954C425.625 120.426 416.388 117.36 414.577 113.052C411.748 106.298 403.746 103.022 396.703 105.735C393.668 106.904 391.168 109.073 389.651 111.851C387.84 112.543 387.787 115.247 389.073 116.691Z" fill="#2F2E41"/>
<path d="M132.817 196.023C131.165 194.016 131.521 191.104 133.614 189.519C133.817 189.365 134.032 189.228 134.258 189.107L131.739 166.151L138.188 163.922L140.972 191.208C142.092 193.525 141.04 196.274 138.624 197.348C136.602 198.246 134.201 197.698 132.817 196.023Z" fill="#FFB6B6"/>
<path d="M129.369 111.861C129.369 111.861 139.838 116.76 139.872 122.519C139.906 128.279 140.773 133.488 139.954 135.717C139.135 137.945 142.036 154.144 140.678 155.748C139.32 157.352 142.118 158.173 140.648 160.918C139.177 163.663 138.526 164.18 139.065 164.804C139.604 165.429 140.395 177.329 140.395 177.329L131.768 178.364L122.591 139.953L129.369 111.861Z" fill="#3F3D56"/>
<path d="M79.5799 198.355C81.5421 196.623 81.6685 193.693 79.8624 191.812C79.6874 191.629 79.4975 191.461 79.2944 191.308L85.5562 169.02L79.5541 165.843L72.3187 192.367C70.8324 194.486 71.4188 197.36 73.6286 198.785C75.4776 199.978 77.938 199.8 79.5799 198.355Z" fill="#FFB6B6"/>
<path d="M96.8224 115.767C96.8224 115.767 85.6783 119.022 84.6978 124.704C83.7174 130.386 82.0045 135.399 82.4472 137.724C82.8899 140.048 77.3618 155.605 78.4392 157.395C79.5167 159.184 76.6186 159.572 77.6192 162.505C78.6198 165.438 79.1777 166.047 78.543 166.582C77.9083 167.117 75.1702 178.749 75.1702 178.749L83.5193 181.076L98.8967 144.533L96.8224 115.767Z" fill="#3F3D56"/>
<path d="M139.619 298.07L147.052 298.069L150.589 270.573L139.618 270.573L139.619 298.07Z" fill="#FFB6B6"/>
<path d="M149.526 298.711V293.879L147.572 293.993L139.618 294.445L137.777 294.554L136.369 310.739L136.294 311.607H141.572L141.741 310.745L142.508 306.828L144.487 310.745L144.921 311.607H158.913C160.646 311.597 162.047 310.25 162.055 308.588C162.646 305.943 151.009 300.224 149.526 298.711Z" fill="#2F2E41"/>
<path d="M52.5366 290.31L59.0017 293.828L76.2261 271.586L66.6845 266.394L52.5366 290.31Z" fill="#FFB6B6"/>
<path d="M60.8259 295.554L63.3077 291.354L61.561 290.528L54.4044 287.16L52.7457 286.376L44.5963 297.82L42.6799 300.507L44.8476 301.688L47.2667 303.008L50.5465 299.296L50.1821 304.593L61.6112 310.818H61.6175L62.3527 311.215C63.8641 312.034 65.7815 311.525 66.6378 310.076C68.5103 308.052 61.3348 297.579 60.8259 295.554Z" fill="#2F2E41"/>
<path d="M102.732 163.094C86.2573 163.662 80.4676 228.081 85.4985 229.249L62.021 271.211L95.4378 285.577L117.41 212.409L121.072 239.335L116.189 282.065L137.789 287.075L152.729 286.052C148.847 235.118 139.154 181.399 131.121 160.619L102.732 163.094Z" fill="#2F2E41"/>
<path d="M95.169 167.611L95.0606 168.002C105.591 173.621 112.781 172.419 124.292 169.018L132.695 167.324C134.529 165.03 133.034 162.787 131.002 160.602L136.04 120.864C136.006 115.716 131.627 111.569 126.259 111.601C126.038 111.602 125.818 111.611 125.598 111.627L118.03 106.251L107.258 106.607L100.052 114.24L95.7471 115.716L92.4022 116.859C91.7261 117.443 90.9879 118.117 90.2808 118.859L95.5716 149.057L97.8221 158.086C94.8053 161.385 93.1432 164.605 95.169 167.611Z" fill="#3F3D56"/>
<path d="M34.0542 306.62C26.2154 305.725 19.2167 301.484 15.0076 295.079C12.3049 290.875 10.9104 285.883 9.56173 281.056C9.16905 279.651 8.76327 278.198 8.33354 276.798C7.3395 273.667 8.43151 270.271 11.0916 268.22C13.6632 266.153 17.2876 265.794 20.2452 267.314L20.5608 267.475L21.1137 279.395C21.9331 277.798 23.7312 274.19 25.1557 270.588L25.2752 270.287L25.5481 270.476C28.4121 272.449 31.0055 274.76 33.2674 277.355C41.3507 286.78 44.7022 299.137 42.4315 311.145L42.3627 311.498L34.0542 306.62Z" fill="#F2F2F2"/>
<path d="M2.77064e-06 311.411C-0.00100378 311.735 0.272369 311.999 0.6106 312H435.386C435.725 312 436 311.736 436 311.411C436 311.086 435.725 310.822 435.386 310.822H0.61426C0.276013 310.821 0.00100932 311.083 7.93242e-06 311.407L2.77064e-06 311.411Z" fill="#CCCCCC"/>
<path d="M127.965 99.4716L127.975 99.4689C129.149 99.1711 129.848 98.0177 129.537 96.8925L126.408 85.5214C125.849 83.4836 124.869 81.5744 123.525 79.9072C120.898 76.6552 117.064 74.5009 112.821 73.8934C110.631 73.5822 108.399 73.6995 106.258 74.2381C97.498 76.4415 95.0514 79.22 94.557 93.4391C94.0626 107.658 97.6915 104.828 97.6915 104.828C97.7667 105.102 97.8986 105.359 98.0794 105.583C98.4333 106.02 98.9495 106.309 99.5203 106.39C99.8131 106.431 100.112 106.415 100.398 106.343C111.337 105.263 122.415 104.28 127.966 99.4712L127.965 99.4716Z" fill="#2F2E41"/>
<path d="M102.245 87.4667C100.64 93.6813 104.592 99.9674 111.072 101.507C114.177 102.245 117.461 101.772 120.204 100.191C122.946 98.6227 124.919 96.0667 125.683 93.0938C127.283 86.8779 123.326 80.5949 116.845 79.0604C113.747 78.327 110.472 78.7981 107.735 80.3709C104.989 81.9374 103.012 84.4926 102.245 87.4667Z" fill="#FFB6B6"/>
<path d="M130.423 85.4948C129.981 83.8832 129.206 82.3732 128.143 81.0547C126.634 77.4459 124.266 74.5291 119.679 76.2999C117.958 76.0561 116.204 76.1466 114.521 76.5661L112.145 77.1555C112.118 77.1621 112.091 77.1688 112.065 77.1756C105.155 78.9292 101.036 85.7228 102.864 92.3495L102.927 92.5773L107.952 91.3258L108.402 86.306L110.009 90.8147L112.605 90.1692L112.831 87.6368L113.642 89.9098C118.564 91.7439 124.269 89.9244 130.484 85.7236L130.423 85.4948Z" fill="#2F2E41"/>
<path d="M118.893 101.385C119.073 101.733 119.147 102.122 119.108 102.508C119.089 102.705 119.041 102.899 118.967 103.084C118.902 103.241 118.819 103.391 118.718 103.53C118.419 103.939 117.977 104.233 117.472 104.359C117.44 104.367 117.409 104.374 117.377 104.38C117.345 104.387 117.313 104.393 117.281 104.398C117.249 104.403 117.216 104.408 117.183 104.412C117.151 104.416 117.118 104.419 117.085 104.421L115.217 104.562L111.379 100.155L112.647 104.761L104.161 105.413L98.7815 85.8672L112.379 82.4917L112.147 82.9506C111.378 84.4875 111.066 86.1982 111.245 87.8942C111.435 89.6098 111.931 91.2815 112.71 92.8366C113.485 94.4135 114.417 95.9154 115.491 97.3215C116.436 98.5692 117.454 99.7636 118.542 100.899C118.682 101.044 118.8 101.208 118.893 101.385Z" fill="#2F2E41"/>
<path d="M186.215 8.55936C188.626 8.55936 190.581 6.64328 190.581 4.27968C190.581 1.91608 188.626 0 186.215 0C183.805 0 181.85 1.91608 181.85 4.27968C181.85 6.64328 183.805 8.55936 186.215 8.55936Z" fill="#3F3D56"/>
<path d="M201.295 8.55936C203.706 8.55936 205.66 6.64328 205.66 4.27968C205.66 1.91608 203.706 0 201.295 0C198.884 0 196.93 1.91608 196.93 4.27968C196.93 6.64328 198.884 8.55936 201.295 8.55936Z" fill="#3F3D56"/>
<path d="M216.374 8.55936C218.785 8.55936 220.74 6.64328 220.74 4.27968C220.74 1.91608 218.785 0 216.374 0C213.964 0 212.009 1.91608 212.009 4.27968C212.009 6.64328 213.964 8.55936 216.374 8.55936Z" fill="#3F3D56"/>
<path d="M233.569 7.66221C233.435 7.66221 233.301 7.61241 233.2 7.51331L230.255 4.62572C230.058 4.43331 230.058 4.12584 230.255 3.93343L233.2 1.04608C233.4 0.85077 233.727 0.847626 233.93 1.03835C234.134 1.22955 234.137 1.54306 233.938 1.73837L231.346 4.27957L233.938 6.82102C234.137 7.01633 234.134 7.32984 233.93 7.52104C233.83 7.61531 233.699 7.66221 233.569 7.66221Z" fill="#3F3D56"/>
<path d="M238.518 7.6622C238.388 7.6622 238.258 7.61531 238.157 7.52104C237.954 7.32984 237.95 7.01657 238.149 6.82102L240.741 4.27957L238.149 1.73837C237.95 1.54306 237.954 1.22955 238.157 1.03835C238.361 0.846904 238.688 0.850532 238.887 1.04608L241.832 3.93343C242.029 4.12584 242.029 4.43331 241.832 4.62572L238.887 7.51331C238.786 7.61241 238.652 7.6622 238.518 7.6622Z" fill="#3F3D56"/>
<path d="M392.602 0.495487H387.126C386.501 0.495487 385.995 0.980619 385.995 1.57963V6.83699C385.995 7.436 386.501 7.92113 387.126 7.92113H392.602C393.227 7.92113 393.738 7.436 393.738 6.83699V1.57963C393.738 0.980619 393.227 0.495487 392.602 0.495487Z" fill="#3F3D56"/>
<path d="M379.182 0.495487H373.705C373.081 0.495487 372.575 0.980619 372.575 1.57963V6.83699C372.575 7.436 373.081 7.92113 373.705 7.92113H379.182C379.806 7.92113 380.317 7.436 380.317 6.83699V1.57963C380.317 0.980619 379.806 0.495487 379.182 0.495487Z" fill="#3F3D56"/>
<path d="M405.249 0.743011H399.772C399.148 0.743011 398.642 1.22814 398.642 1.82716V7.08451C398.642 7.68352 399.148 8.16866 399.772 8.16866H405.249C405.874 8.16866 406.385 7.68352 406.385 7.08451V1.82716C406.385 1.22814 405.874 0.743011 405.249 0.743011Z" fill="#3F3D56"/>
<path d="M322.701 2.74297H278.924C278.16 2.74297 277.546 3.33703 277.546 4.06476C277.546 4.79249 278.16 5.38651 278.924 5.38651H322.701C323.46 5.38651 324.079 4.79246 324.079 4.06476C324.079 3.33706 323.46 2.74297 322.701 2.74297Z" fill="#3F3D56"/>
</g>
</g>
<defs>
<clipPath id="clip0_27_533">
<rect width="436" height="312" fill="white"/>
</clipPath>
<clipPath id="clip1_27_533">
<rect width="436" height="312" fill="white"/>
</clipPath>
</defs>
</svg>
